<svg id="Layer_1" data-name="Layer 1" xmlns="http://www.w3.org/2000/svg" viewBox="0 0 469.42 55.7"><defs><style>.cls-1{fill:#d0d0d0;}</style></defs><polyline class="cls-1" points="10.37 22.08 0 1.32 0.03 1.3 13.46 1.3 25.89 22.08"/><polyline class="cls-1" points="40.39 31.22 40.43 55.64 27 55.41 14.93 31.22"/><polygon class="cls-1" points="94.16 22.51 94.07 9.41 121.01 9.42 120.98 0.27 80.69 0.27 80.67 22.46 94.16 22.51"/><polygon class="cls-1" points="107.55 22.45 94.18 22.43 94.12 31.61 107.55 31.61 107.55 22.45"/><polyline class="cls-1" points="107.6 31.61 107.55 46.4 80.68 46.4 80.69 55.7 120.99 55.54 121.01 31.6"/><polyline class="cls-1" points="147.74 22.08 147.74 1.03 134.31 1.03 134.31 22.08"/><polyline class="cls-1" points="174.65 22.08 174.65 1.03 161.22 1.15 161.22 22.08"/><polyline class="cls-1" points="161.22 31.22 161.22 46.3 147.75 46.3 147.74 31.22 134.31 31.22 134.31 55.43 174.65 55.43 174.65 31.22"/><polyline class="cls-1" points="214.84 31.22 214.84 55.24 228.27 55.24 228.27 31.22"/><polyline class="cls-1" points="188.13 22.08 188.13 0.97 228.27 0.85 228.27 22.08 214.84 22.08 214.84 10.22 201.56 10.22 201.56 22.08"/><polyline class="cls-1" points="201.56 31.22 201.56 55.37 188.13 55.37 188.13 31.22"/><polyline class="cls-1" points="254.93 22.08 254.92 0.73 241.49 0.73 241.49 22.08"/><polyline class="cls-1" points="241.49 31.22 241.49 55.12 281.8 55.17 281.8 46.03 254.94 46.06 254.94 31.22"/><polyline class="cls-1" points="308.6 22.06 308.6 0.62 295.17 0.62 295.17 22.06"/><polyline class="cls-1" points="295.17 31.2 295.17 55.02 308.6 55.02 308.6 31.22"/><polyline class="cls-1" points="346.15 31.2 335.37 46.03 362.28 45.85 362.28 54.99 321.94 54.76 321.94 45.85 332.66 31.22"/><polyline class="cls-1" points="321.88 0.01 362.18 0.01 362.18 9.16 352.78 22.08 339.43 21.98 348.71 9.32 321.88 9.16 321.88 0.62"/><polygon class="cls-1" points="388.96 21.97 388.94 9.25 415.81 9.32 415.81 0.18 375.51 0.2 375.51 22.08 388.96 21.97"/><polyline class="cls-1" points="388.94 31.2 415.73 31.2 415.73 22.06 388.94 21.98"/><polyline class="cls-1" points="375.51 31.2 375.51 54.49 415.81 54.49 415.81 45.35 388.95 45.32 388.96 31.23"/><polygon class="cls-1" points="429.08 54.44 429.08 0.05 469.28 0 469.42 9.25 469.34 31.13 455.85 31.2 455.85 9.32 442.51 9.32 442.51 54.44 429.08 54.44"/><polygon class="cls-1" points="455.85 54.4 469.42 54.41 455.93 31.36 442.5 31.36 455.85 54.4"/><polyline class="cls-1" points="67.29 22.08 67.29 1.25 53.86 1.25 53.85 22.08"/><polyline class="cls-1" points="53.84 31.22 53.84 55.67 67.29 55.64 67.29 31.22"/><polyline class="cls-1" points="26.89 22.08 27 1.25 40.35 1.32 40.38 22.08"/><rect class="cls-1" x="201.56" y="22.08" width="13.27" height="9.14"/></svg>