<svg width="49" height="49" viewBox="0 0 49 49" fill="none" xmlns="http://www.w3.org/2000/svg">
<path d="M24.5 0C10.9908 0 0 10.9908 0 24.5C0 38.0092 10.9908 49 24.5 49C38.0092 49 49 38.0092 49 24.5C49 10.9908 38.0092 0 24.5 0ZM24.5 3.675C36.0231 3.675 45.325 12.9769 45.325 24.5C45.325 34.7664 37.9348 43.2503 28.175 44.9829V30.625H32.6156C33.233 30.625 33.7551 30.1632 33.8311 29.5507L34.2904 25.8757C34.3345 25.5278 34.2241 25.1785 33.9914 24.9139C33.7598 24.6505 33.4266 24.5 33.075 24.5H28.175V20.2125C28.175 18.8613 29.2738 17.7625 30.625 17.7625H33.075C33.7512 17.7625 34.3 17.2149 34.3 16.5375V12.4031C34.3 11.7686 33.8159 11.2393 33.1851 11.1829C33.1128 11.1768 31.3845 11.025 29.1966 11.025C23.7981 11.025 20.825 14.2298 20.825 20.0498V24.5H15.925C15.2488 24.5 14.7 25.0476 14.7 25.725V29.4C14.7 30.0774 15.2488 30.625 15.925 30.625H20.825V44.9829C11.0652 43.2503 3.675 34.7664 3.675 24.5C3.675 12.9769 12.9769 3.675 24.5 3.675Z" fill="white"/>
</svg>
