<svg width="92" height="103" viewBox="0 0 92 103" fill="none" xmlns="http://www.w3.org/2000/svg">
<path d="M91.4271 19.1638L71.3491 20.8895C71.2476 20.8982 71.1509 20.9361 71.0705 20.9986C70.9901 21.061 70.9295 21.1455 70.896 21.2416C70.8625 21.3378 70.8575 21.4416 70.8817 21.5405C70.9059 21.6394 70.9582 21.7292 71.0322 21.7991L76.0971 26.5759L74.9728 27.7234L74.2226 28.489L70.4145 32.4423C68.9471 33.9889 67.4856 35.5392 66.03 37.0931C64.9872 38.2107 63.9502 39.3349 62.9192 40.4656C60.4508 43.1672 58.014 45.8996 55.6087 48.6627C54.4119 50.0487 53.2195 51.4413 52.0447 52.8493C51.7323 53.2233 51.4243 53.6017 51.1141 53.9778L49.858 53.2716L30.2584 42.2541L27.13 40.4964L24.8883 42.9384L22.0833 45.9942L0 70.0486L4.63754 74.5718L28.5314 51.5138H28.5336L42.521 60.6129L49.6732 65.2659L52.2669 66.9533L52.8609 67.3382L56.2357 64.3815C57.6173 63.1693 58.9776 61.9373 60.3166 60.6855C61.6608 59.436 62.9852 58.171 64.3052 56.9016C66.9408 54.3562 69.5374 51.7757 72.0953 49.1599C74.6648 46.5529 77.186 43.8998 79.7006 41.2422L83.4427 37.225L83.9487 36.6729L85.2719 35.2289L90.1078 39.7898C90.1811 39.8589 90.2727 39.9056 90.3717 39.9244C90.4707 39.9431 90.573 39.9331 90.6665 39.8956C90.76 39.858 90.8408 39.7945 90.8993 39.7124C90.9578 39.6304 90.9917 39.5334 90.9968 39.4327L91.9993 19.7163C92.0031 19.641 91.9908 19.5658 91.9631 19.4957C91.9354 19.4256 91.8931 19.3623 91.8389 19.3099C91.7846 19.2576 91.7198 19.2175 91.6488 19.1923C91.5778 19.167 91.5022 19.1573 91.4271 19.1638Z" fill="white"/>
<path d="M4.73828 101.051C4.73895 101.508 4.92101 101.947 5.24456 102.271C5.56811 102.594 6.00675 102.776 6.46432 102.777H18.4289C18.8865 102.776 19.3252 102.594 19.6487 102.271C19.9723 101.947 20.1543 101.508 20.155 101.051V66.1396L4.73828 81.017V101.051Z" fill="white"/>
<path d="M26.1177 60.3847V101.051C26.1183 101.508 26.3004 101.947 26.624 102.271C26.9475 102.594 27.3861 102.776 27.8437 102.777H39.8083C40.2659 102.776 40.7046 102.594 41.0281 102.271C41.3517 101.947 41.5337 101.508 41.5344 101.051V65.5864L29.1049 57.5015L26.1177 60.3847Z" fill="white"/>
<path d="M53.2872 73.224L47.4971 69.464V101.051C47.4977 101.508 47.6798 101.947 48.0034 102.27C48.3269 102.594 48.7655 102.776 49.2231 102.777H61.1877C61.6453 102.776 62.0839 102.594 62.4075 102.27C62.731 101.947 62.9131 101.508 62.9138 101.051V64.6997C61.7644 65.7647 60.562 66.8475 59.3401 67.9204L53.2872 73.224Z" fill="white"/>
<path d="M75.4473 52.4644C73.0779 54.8769 70.9125 57.0364 68.8765 59.0233V101.051C68.8772 101.508 69.0593 101.947 69.3828 102.27C69.7064 102.594 70.145 102.776 70.6026 102.777H82.5672C83.0248 102.776 83.4634 102.594 83.7869 102.27C84.1105 101.947 84.2926 101.508 84.2932 101.051V43.2183L83.1203 44.4775C80.6901 47.045 78.0971 49.7772 75.4473 52.4644Z" fill="white"/>
<path d="M52.8255 31.2324C52.0842 31.7758 50.7033 32.0486 48.6829 32.0509C46.9636 32.0598 45.2516 31.826 43.5977 31.3565C42.1756 30.9618 40.7897 30.4467 39.455 29.8169L37.3217 35.5226C38.4135 36.0373 39.5321 36.493 40.6727 36.8879C42.575 37.5131 44.5505 37.8886 46.5495 38.0048V43.9085H52.802V37.854C54.2275 37.6516 55.61 37.2164 56.8943 36.5659C57.9236 36.034 58.8413 35.3098 59.5979 34.4325C60.2723 33.6426 60.779 32.724 61.0873 31.7323C61.3823 30.776 61.5327 29.7811 61.5334 28.7804C61.5632 27.4668 61.3008 26.163 60.7653 24.9632C60.2569 23.8767 59.5308 22.9062 58.6319 22.112C57.6548 21.2562 56.5713 20.5302 55.4083 19.9518C54.0962 19.2905 52.7453 18.7091 51.363 18.2109C50.4036 17.8787 49.5852 17.5724 48.9076 17.2917C48.3129 17.053 47.7405 16.7623 47.1969 16.423C46.7806 16.1717 46.4318 15.8229 46.1805 15.4066C45.9538 14.9881 45.8416 14.5172 45.8551 14.0414C45.8468 13.6356 45.9374 13.2338 46.1192 12.8709C46.301 12.508 46.5684 12.1947 46.8983 11.9583C47.9283 11.3408 49.1264 11.0627 50.3232 11.1633C51.8499 11.1562 53.3725 11.3227 54.8616 11.6598C56.1582 11.9462 57.4276 12.3447 58.6554 12.8506L60.195 6.89658C59.2385 6.48903 58.2516 6.15705 57.2432 5.90369C55.785 5.53778 54.2999 5.28876 52.802 5.15901V0H46.5495V5.36029C45.2331 5.57717 43.9601 6.00413 42.7792 6.62485C41.816 7.12541 40.9624 7.81313 40.2683 8.64773C39.5743 9.48232 39.0537 10.447 38.7372 11.4853C38.4204 12.5051 38.2609 13.5672 38.2643 14.6351C38.2185 15.8156 38.4481 16.9905 38.9348 18.0669C39.4215 19.1434 40.152 20.0919 41.0685 20.8373C41.9318 21.5429 42.8822 22.1347 43.8962 22.5983C44.9394 23.078 46.0061 23.5163 47.0963 23.9132C48.22 24.3124 49.2129 24.6814 50.075 25.0302C50.8176 25.3188 51.5318 25.6759 52.2083 26.0969C52.7152 26.4106 53.1534 26.8237 53.4964 27.3112C53.804 27.7919 53.9595 28.3542 53.9426 28.9247C53.9626 29.3718 53.871 29.817 53.676 30.2199C53.481 30.6228 53.1887 30.9708 52.8255 31.2324Z" fill="white"/>
</svg>
