<svg width="119" height="102" viewBox="0 0 119 102" fill="none" xmlns="http://www.w3.org/2000/svg">
<path d="M92.8554 101.725C78.6621 101.725 67.1187 90.266 67.1187 76.2179C67.1187 62.1456 78.6742 50.7111 92.8554 50.7111C107.037 50.7111 118.592 62.1577 118.592 76.2179C118.592 90.2781 107.037 101.725 92.8554 101.725ZM92.7344 56.3618C81.5661 56.3618 72.4911 65.3642 72.4911 76.4236C72.4911 87.4709 81.5782 96.4854 92.7465 96.4854C103.915 96.4854 113.002 87.483 113.002 76.4236C112.99 65.3521 103.903 56.3618 92.7344 56.3618ZM89.1044 87.4225C88.2453 87.4225 87.4225 87.0958 86.8054 86.4908L78.2144 78.0813C77.5973 77.4642 77.2585 76.6898 77.2585 75.8307C77.2585 74.9716 77.5973 74.1609 78.2144 73.568C78.8315 72.9751 79.6543 72.6363 80.5134 72.6363C81.3725 72.6363 82.1953 72.963 82.8124 73.568L89.1286 79.739L101.64 67.4817C102.257 66.8888 103.056 66.55 103.939 66.55C104.798 66.55 105.621 66.8767 106.238 67.4817C106.855 68.0746 107.194 68.8732 107.194 69.7323C107.194 70.5914 106.855 71.4021 106.238 71.9829L91.4155 86.4787C90.7742 87.0958 89.9635 87.4225 89.1044 87.4225ZM8.3248 85.4139H8.3006C3.5816 84.9178 0 80.9611 0 76.1937V8.9056C0 3.9204 4.0777 0 9.2565 0H108.719C114.018 0 118.338 3.993 118.338 8.9056V55.7205L117.406 54.6678C116.087 53.1795 114.611 51.8243 113.05 50.6143L112.845 50.4449V11.1441C112.845 8.0102 110.05 5.445 106.613 5.445H11.4829C8.1312 5.445 5.5297 7.9497 5.5297 11.1441V74.052C5.5297 77.0528 7.865 79.6543 10.8416 79.981H60.2943L60.3548 80.465C60.5484 81.9049 60.8388 83.3327 61.2139 84.7484L61.4075 85.4381H8.3248V85.4139ZM13.7819 68.1593V65.4489C13.7819 57.1362 19.2874 49.7673 27.8421 46.6939L27.8784 46.6697C28.2656 46.5003 28.7375 46.3672 29.1731 46.2462C29.282 46.2099 29.403 46.1736 29.5361 46.1373C29.4272 46.0284 29.2457 45.8832 29.04 45.7501C28.9432 45.7138 28.8101 45.6412 28.556 45.496C23.5829 42.8219 20.4853 37.3648 20.4853 31.2664C20.4853 22.5302 26.9467 15.4154 34.9085 15.4154C42.8582 15.4154 49.3317 22.5302 49.3317 31.2664C49.3317 37.389 45.6412 42.6283 42.2411 44.9152C41.6845 45.2782 41.3578 45.5444 41.1521 45.7017C41.4062 45.7985 41.7087 45.8953 41.8781 45.9074H41.9023L42.229 45.9679H42.2532C51.8122 48.4121 58.5035 56.4102 58.5035 65.4126V68.123H13.7819V68.1593ZM52.7197 62.7264C51.5581 57.354 47.0206 52.9133 41.019 51.304C38.3207 50.9168 35.453 49.0292 35.453 45.7259C35.453 43.1244 37.2317 41.7329 39.204 40.3898C41.5393 38.8168 43.8867 35.1868 43.8867 31.2543C43.8867 25.5189 39.8695 20.8483 34.9206 20.8483C29.9717 20.8483 25.9545 25.5189 25.9545 31.2543C25.9545 35.2836 27.9994 38.9983 31.1696 40.7044L31.5931 40.9343C33.8921 42.229 35.1263 44.1287 35.1263 46.2462C35.1263 47.5046 34.7633 49.2107 33.1419 50.3965L33.2387 50.5296L32.4885 50.7958C32.1618 50.9652 31.7988 51.1225 31.4237 51.2314H31.3995C31.097 51.3282 30.9034 51.3645 30.7098 51.425H30.6856C30.5888 51.4492 30.5283 51.4613 30.4557 51.4855L29.8991 51.6791C24.4904 53.5667 20.5458 57.7412 19.4931 62.678H52.7076L52.7197 62.7264ZM65.1827 51.6186C63.5008 51.6186 62.1214 50.2392 62.1214 48.5573C62.1214 46.8754 63.5008 45.496 65.1827 45.496H74.1851C75.867 45.496 77.2464 46.8754 77.2464 48.5573C77.2464 50.2392 75.867 51.6186 74.1851 51.6186H65.1827ZM65.1827 39.1314C63.5008 39.1314 62.1214 37.752 62.1214 36.0701C62.1214 34.3882 63.5008 33.0088 65.1827 33.0088H98.6271C100.309 33.0088 101.688 34.3882 101.688 36.0701C101.688 37.752 100.309 39.1314 98.6271 39.1314H65.1827ZM65.1827 26.6321C63.5008 26.6321 62.1214 25.2527 62.1214 23.5708C62.1214 21.8889 63.5008 20.5095 65.1827 20.5095H98.6271C100.309 20.5095 101.688 21.8889 101.688 23.5708C101.688 25.2527 100.309 26.6321 98.6271 26.6321H65.1827Z" fill="white"/>
</svg>
