<svg width="105" height="96" viewBox="0 0 105 96" fill="none" xmlns="http://www.w3.org/2000/svg">
<path d="M3.28114 76.8369H49.2185V88.5937H27.0702V95.1562H77.9296V88.5937H55.7812V76.8369H101.719C103.523 76.8369 105 75.3603 105 73.5558V3.28114C105 1.47643 103.523 0 101.719 0H3.28114C1.47664 0 0 1.47643 0 3.28114V73.5556C0 75.3603 1.47664 76.8369 3.28114 76.8369ZM6.56249 6.56249H98.4373V70.2744H6.56249V6.56249Z" fill="white"/>
<path d="M81.378 42.1376L78.1068 29.0979H73.6246L70.2086 41.9244L67.3934 29.0979H64.7257H63.5347H60.9294L58.0617 42.1376L54.7902 29.0979H50.308L46.8955 41.9244L44.0802 29.0979H41.4093H40.2216H37.6129L34.7483 42.1376L31.477 29.0979H26.9948L23.5791 41.9244L20.7636 29.0979H16.905L21.3642 47.7681H25.4526L29.1572 33.8098L32.878 47.7681H36.8746L40.8087 31.5654L44.6774 47.7681H48.7658L52.4735 33.8098L56.1914 47.7681H60.191L64.1253 31.5654L67.994 47.7681H72.0823L75.7869 33.8098L79.5045 47.7681H83.5044L88.0391 29.0979H84.2458L81.378 42.1376Z" fill="white"/>
</svg>
