<svg width="109" height="121" viewBox="0 0 109 121" fill="none" xmlns="http://www.w3.org/2000/svg">
<path d="M106.882 8.06653H66.8009V2.01663C66.801 1.75178 66.7489 1.48952 66.6476 1.24482C66.5462 1.00012 66.3977 0.77778 66.2104 0.590504C66.0232 0.403229 65.8008 0.254688 65.5561 0.153367C65.3114 0.0520461 65.0492 -6.8819e-05 64.7843 6.82036e-08H44.1138C43.849 -6.8819e-05 43.5867 0.0520461 43.342 0.153367C43.0973 0.254688 42.875 0.403229 42.6877 0.590504C42.5004 0.77778 42.3519 1.00012 42.2506 1.24482C42.1492 1.48952 42.0971 1.75178 42.0972 2.01663V8.06653H2.01663C1.75178 8.06646 1.48952 8.11857 1.24482 8.21989C1.00012 8.32122 0.77778 8.46976 0.590504 8.65703C0.403229 8.84431 0.254687 9.06665 0.153366 9.31135C0.0520456 9.55605 -6.8819e-05 9.81831 6.82043e-08 10.0832V86.7152C-6.8819e-05 86.98 0.0520456 87.2423 0.153366 87.487C0.254687 87.7317 0.403229 87.954 0.590504 88.1413C0.77778 88.3286 1.00012 88.4771 1.24482 88.5784C1.48952 88.6798 1.75178 88.7319 2.01663 88.7318H33.0361L18.3624 118.079C18.2041 118.386 18.128 118.729 18.1413 119.074C18.1547 119.419 18.2572 119.755 18.4388 120.049C18.6204 120.343 18.8749 120.584 19.1776 120.751C19.4804 120.917 19.821 121.002 20.1663 120.998H32.2661C32.6406 120.998 33.0077 120.894 33.3263 120.697C33.6449 120.5 33.9025 120.218 34.07 119.883L39.5626 108.898H69.3355L74.8281 119.883C74.9957 120.218 75.2532 120.5 75.5718 120.697C75.8904 120.894 76.2575 120.998 76.632 120.998H88.7318C89.0814 121.014 89.4288 120.936 89.7383 120.773C90.0478 120.61 90.3079 120.367 90.4919 120.069C90.6759 119.771 90.777 119.43 90.7847 119.08C90.7924 118.73 90.7064 118.385 90.5358 118.079L75.862 88.7318H106.882C107.146 88.7319 107.409 88.6798 107.653 88.5784C107.898 88.4771 108.12 88.3286 108.308 88.1413C108.495 87.954 108.643 87.7317 108.745 87.487C108.846 87.2423 108.898 86.98 108.898 86.7152V10.0832C108.898 9.81831 108.846 9.55605 108.745 9.31135C108.643 9.06665 108.495 8.84431 108.308 8.65703C108.12 8.46976 107.898 8.32122 107.653 8.21989C107.409 8.11857 107.146 8.06646 106.882 8.06653ZM46.1305 4.03326H62.7677V8.06653H46.1305V4.03326ZM31.0195 116.965H23.4296L37.546 88.7318H45.1359L31.0195 116.965ZM59.2524 88.7318L63.2856 96.7983H45.6125L49.6458 88.7318H59.2524ZM41.5793 104.865L43.5959 100.832H65.3023L67.3189 104.865H41.5793ZM85.4686 116.965H77.8786L63.7622 88.7318H71.3521L85.4686 116.965ZM104.865 84.6985H4.03326V12.0998H104.865V84.6985Z" fill="white"/>
<path d="M86.6522 62.5157C87.187 62.5157 87.6999 62.3032 88.0781 61.925C88.4563 61.5468 88.6688 61.0339 88.6688 60.4991C88.6688 59.9642 88.4563 59.4513 88.0781 59.0731C87.6999 58.6949 87.187 58.4824 86.6522 58.4824H66.6119C66.077 58.4824 65.5641 58.6949 65.1859 59.0731C64.8077 59.4513 64.5952 59.9642 64.5952 60.4991C64.5952 61.0339 64.8077 61.5468 65.1859 61.925C65.5641 62.3032 66.077 62.5157 66.6119 62.5157H86.6522Z" fill="white"/>
<path d="M60.499 66.5488C59.9641 66.5488 59.4512 66.7613 59.073 67.1395C58.6948 67.5177 58.4823 68.0306 58.4823 68.5655C58.4823 69.1003 58.6948 69.6132 59.073 69.9914C59.4512 70.3696 59.9641 70.5821 60.499 70.5821H92.7651C93.2999 70.5821 93.8129 70.3696 94.1911 69.9914C94.5692 69.6132 94.7817 69.1003 94.7817 68.5655C94.7817 68.0306 94.5692 67.5177 94.1911 67.1395C93.8129 66.7613 93.2999 66.5488 92.7651 66.5488H60.499Z" fill="white"/>
<path d="M92.7651 74.6155H60.499C59.9641 74.6155 59.4512 74.8279 59.073 75.2061C58.6948 75.5843 58.4823 76.0973 58.4823 76.6321C58.4823 77.167 58.6948 77.6799 59.073 78.0581C59.4512 78.4363 59.9641 78.6487 60.499 78.6487H92.7651C93.2999 78.6487 93.8129 78.4363 94.1911 78.0581C94.5692 77.6799 94.7817 77.167 94.7817 76.6321C94.7817 76.0973 94.5692 75.5843 94.1911 75.2061C93.8129 74.8279 93.2999 74.6155 92.7651 74.6155Z" fill="white"/>
<path d="M42.4123 62.5157C42.9471 62.5157 43.4601 62.3032 43.8383 61.925C44.2165 61.5468 44.4289 61.0339 44.4289 60.4991C44.4289 59.9642 44.2165 59.4513 43.8383 59.0731C43.4601 58.6949 42.9471 58.4824 42.4123 58.4824H22.372C21.8372 58.4824 21.3242 58.6949 20.946 59.0731C20.5678 59.4513 20.3554 59.9642 20.3554 60.4991C20.3554 61.0339 20.5678 61.5468 20.946 61.925C21.3242 62.3032 21.8372 62.5157 22.372 62.5157H42.4123Z" fill="white"/>
<path d="M48.5252 66.5488H16.2591C15.7242 66.5488 15.2113 66.7613 14.8331 67.1395C14.4549 67.5177 14.2424 68.0306 14.2424 68.5655C14.2424 69.1003 14.4549 69.6132 14.8331 69.9914C15.2113 70.3696 15.7242 70.5821 16.2591 70.5821H48.5252C49.06 70.5821 49.5729 70.3696 49.9511 69.9914C50.3293 69.6132 50.5418 69.1003 50.5418 68.5655C50.5418 68.0306 50.3293 67.5177 49.9511 67.1395C49.5729 66.7613 49.06 66.5488 48.5252 66.5488Z" fill="white"/>
<path d="M48.5252 74.6155H16.2591C15.7242 74.6155 15.2113 74.8279 14.8331 75.2061C14.4549 75.5843 14.2424 76.0973 14.2424 76.6321C14.2424 77.167 14.4549 77.6799 14.8331 78.0581C15.2113 78.4363 15.7242 78.6487 16.2591 78.6487H48.5252C49.06 78.6487 49.5729 78.4363 49.9511 78.0581C50.3293 77.6799 50.5418 77.167 50.5418 76.6321C50.5418 76.0973 50.3293 75.5843 49.9511 75.2061C49.5729 74.8279 49.06 74.6155 48.5252 74.6155Z" fill="white"/>
<path d="M32.1814 18.1497C28.5918 18.1497 25.0827 19.2141 22.098 21.2084C19.1133 23.2027 16.787 26.0373 15.4133 29.3538C14.0396 32.6702 13.6802 36.3195 14.3805 39.8402C15.0808 43.3609 16.8094 46.5948 19.3477 49.1331C21.8859 51.6714 25.1199 53.4 28.6406 54.1003C32.1613 54.8006 35.8106 54.4412 39.127 53.0675C42.4434 51.6938 45.278 49.3675 47.2723 46.3828C49.2667 43.3981 50.3311 39.889 50.3311 36.2993C50.3257 31.4874 48.4118 26.8741 45.0092 23.4716C41.6067 20.069 36.9934 18.1551 32.1814 18.1497ZM30.1648 22.3441V34.2827H18.2261C18.6652 31.2725 20.0644 28.4845 22.2155 26.3334C24.3665 24.1823 27.1546 22.7832 30.1648 22.3441ZM32.1814 50.4158C28.7903 50.4097 25.5145 49.184 22.9524 46.9625C20.3902 44.741 18.7127 41.672 18.2261 38.316H32.1814C32.4463 38.316 32.7085 38.2639 32.9532 38.1626C33.1979 38.0613 33.4203 37.9128 33.6075 37.7255C33.7948 37.5382 33.9434 37.3159 34.0447 37.0712C34.146 36.8265 34.1981 36.5642 34.1981 36.2993V22.3441C37.7298 22.8519 40.938 24.6791 43.1764 27.4578C45.4148 30.2364 46.5172 33.76 46.2616 37.319C46.0059 40.8779 44.4112 44.2078 41.7985 46.6379C39.1859 49.0681 35.7495 50.418 32.1814 50.4158Z" fill="white"/>
<path d="M62.5156 36.2993V52.4324C62.5156 52.9672 62.7281 53.4802 63.1063 53.8584C63.4844 54.2366 63.9974 54.449 64.5322 54.449H92.7651C93.2999 54.449 93.8129 54.2366 94.1911 53.8584C94.5692 53.4802 94.7817 52.9672 94.7817 52.4324C94.7817 51.8976 94.5692 51.3846 94.1911 51.0064C93.8129 50.6282 93.2999 50.4158 92.7651 50.4158H90.7484V20.1663C90.7484 19.6314 90.536 19.1185 90.1578 18.7403C89.7796 18.3621 89.2667 18.1497 88.7318 18.1497C88.197 18.1497 87.684 18.3621 87.3058 18.7403C86.9276 19.1185 86.7152 19.6314 86.7152 20.1663V50.4158H82.6819V32.2661C82.6819 31.7312 82.4694 31.2183 82.0913 30.8401C81.7131 30.4619 81.2001 30.2495 80.6653 30.2495C80.1304 30.2495 79.6175 30.4619 79.2393 30.8401C78.8611 31.2183 78.6487 31.7312 78.6487 32.2661V50.4158H74.6154V26.0901C74.6154 25.5553 74.4029 25.0424 74.0247 24.6642C73.6465 24.286 73.1336 24.0735 72.5988 24.0735C72.0639 24.0735 71.551 24.286 71.1728 24.6642C70.7946 25.0424 70.5821 25.5553 70.5821 26.0901V50.4158H66.5489V36.2993C66.5489 35.7645 66.3364 35.2516 65.9582 34.8734C65.58 34.4952 65.0671 34.2827 64.5322 34.2827C63.9974 34.2827 63.4844 34.4952 63.1063 34.8734C62.7281 35.2516 62.5156 35.7645 62.5156 36.2993Z" fill="white"/>
</svg>
