<svg width="47" height="47" viewBox="0 0 47 47" fill="none" xmlns="http://www.w3.org/2000/svg">
<path d="M14.2237 0C6.39001 0 0 6.39001 0 14.2237V32.7763C0 40.6089 6.38979 47 14.2237 47H32.7763C40.6092 47 47 40.6092 47 32.7763V14.2237C47 6.38979 40.6089 0 32.7763 0H14.2237ZM14.2237 3.71053H32.7763C38.6034 3.71053 43.2895 8.39543 43.2895 14.2237V32.7763C43.2895 38.6032 38.6032 43.2895 32.7763 43.2895H14.2237C8.39543 43.2895 3.71053 38.6034 3.71053 32.7763V14.2237C3.71053 8.3952 8.3952 3.71053 14.2237 3.71053ZM35.8684 8.6579C34.5017 8.6579 33.3947 9.76487 33.3947 11.1316C33.3947 12.4983 34.5017 13.6053 35.8684 13.6053C37.2351 13.6053 38.3421 12.4983 38.3421 11.1316C38.3421 9.76487 37.2351 8.6579 35.8684 8.6579ZM23.5 11.1316C16.6914 11.1316 11.1316 16.6914 11.1316 23.5C11.1316 30.3086 16.6914 35.8684 23.5 35.8684C30.3086 35.8684 35.8684 30.3086 35.8684 23.5C35.8684 16.6914 30.3086 11.1316 23.5 11.1316ZM23.5 14.8421C28.3029 14.8421 32.1579 18.6971 32.1579 23.5C32.1579 28.3029 28.3029 32.1579 23.5 32.1579C18.6971 32.1579 14.8421 28.3029 14.8421 23.5C14.8421 18.6971 18.6971 14.8421 23.5 14.8421Z" fill="white"/>
</svg>
