<svg width="41" height="41" viewBox="0 0 41 41" fill="none" xmlns="http://www.w3.org/2000/svg">
<path d="M4.65909 0C2.11115 0 0 2.11115 0 4.65909V36.3409C0 38.8889 2.11115 41 4.65909 41H36.3409C38.8889 41 41 38.8889 41 36.3409V4.65909C41 2.11115 38.8889 0 36.3409 0H4.65909ZM4.65909 3.72727H36.3409C36.8723 3.72727 37.2727 4.12766 37.2727 4.65909V36.3409C37.2727 36.8723 36.8723 37.2727 36.3409 37.2727H4.65909C4.12766 37.2727 3.72727 36.8723 3.72727 36.3409V4.65909C3.72727 4.12766 4.12766 3.72727 4.65909 3.72727ZM10.1335 6.9304C8.36452 6.9304 6.9304 8.36452 6.9304 10.1335C6.9304 11.9025 8.36452 13.3366 10.1335 13.3366C11.9025 13.3366 13.3366 11.9025 13.3366 10.1335C13.3366 8.36452 11.9025 6.9304 10.1335 6.9304ZM26.9645 15.4332C24.2928 15.4332 22.5165 16.8965 21.7812 18.2869H21.6648V15.8409H16.4233V33.5455H21.8977V24.8097C21.8977 22.502 22.3564 20.267 25.2173 20.267C28.0346 20.267 28.071 22.8732 28.071 24.9261V33.5455H33.5455V23.8196C33.5455 19.0586 32.5336 15.4332 26.9645 15.4332ZM7.45455 15.8409V33.5455H12.9872V15.8409H7.45455Z" fill="white"/>
</svg>
