<svg width="347" height="261" viewBox="0 0 347 261" fill="none" xmlns="http://www.w3.org/2000/svg">
<path d="M259.517 117.91C261.682 118.952 261.682 122.019 259.517 123.062L245.731 129.698C243.819 130.618 241.598 129.233 241.598 127.121V113.849C241.598 111.738 243.819 110.353 245.731 111.273L259.517 117.91Z" fill="white"/>
<path fill-rule="evenodd" clip-rule="evenodd" d="M118.652 120.06L129.958 113.543C132.423 112.123 135.574 112.965 136.997 115.426L137.419 116.156C138.842 118.616 137.998 121.762 135.533 123.183L124.227 129.7C121.762 131.121 118.611 130.278 117.189 127.817L116.767 127.087C115.344 124.627 116.188 121.481 118.652 120.06Z" fill="white"/>
<path d="M148.977 191.869C151.173 196.912 154.17 201.315 157.966 205.076C161.762 208.836 166.185 211.815 171.237 214.008C176.288 216.202 181.695 217.299 187.461 217.299C193.168 217.299 198.548 216.217 203.599 214.051C208.651 211.886 213.06 208.937 216.827 205.204C220.594 201.473 223.591 197.113 225.816 192.126C228.042 187.14 229.184 181.798 229.241 176.099V113.528C229.25 112.686 229.158 111.274 228.513 109.682C227.909 108.189 224.946 105.107 223.462 104.468C222.929 104.238 217.026 103.955 215.885 104.468C214.743 104.98 213.744 105.679 212.888 106.562C212.032 107.446 211.375 108.485 210.919 109.682C210.462 110.879 210.235 112.16 210.235 113.528V144.984C208.065 141.394 205.211 138.646 201.673 136.736C198.133 134.828 193.396 133.873 187.461 133.873C181.695 133.873 176.288 134.97 171.237 137.164C166.185 139.358 161.762 142.35 157.966 146.139C154.17 149.929 151.173 154.36 148.977 159.431C146.779 164.504 145.681 169.917 145.681 175.672C145.681 181.427 146.779 186.826 148.977 191.869ZM166.488 166.867C167.689 164.131 169.319 161.738 171.377 159.686C173.436 157.635 175.852 156.026 178.625 154.857C181.398 153.69 184.329 153.104 187.418 153.104C190.563 153.104 193.522 153.689 196.295 154.857C199.068 156.025 201.484 157.635 203.543 159.686C205.602 161.738 207.231 164.131 208.432 166.867C209.633 169.602 210.234 172.537 210.234 175.671C210.234 178.806 209.647 181.74 208.475 184.475C207.303 187.21 205.687 189.604 203.628 191.655C201.569 193.707 199.153 195.331 196.38 196.528C193.607 197.725 190.62 198.323 187.417 198.323C184.271 198.323 181.327 197.725 178.582 196.528C175.837 195.331 173.435 193.707 171.377 191.655C169.318 189.604 167.689 187.21 166.487 184.475C165.286 181.74 164.687 178.806 164.687 175.671C164.688 172.538 165.287 169.602 166.488 166.867Z" fill="white"/>
<path d="M0 207.983C0 209.313 0.259194 210.556 0.777581 211.711C1.29597 212.868 1.98822 213.879 2.85251 214.746C3.71679 215.614 4.74026 216.294 5.92246 216.784C7.10466 217.276 8.35842 217.521 9.68421 217.521C10.9517 217.521 12.1486 217.276 13.2726 216.784C14.396 216.294 15.3911 215.614 16.2553 214.746C17.1196 213.879 17.8119 212.868 18.3303 211.711C18.8487 210.556 19.1092 209.313 19.1092 207.983L19.4551 164.105C19.4551 163.817 19.4404 163.556 19.4115 163.325C19.3817 163.094 19.3386 162.834 19.2813 162.544C19.7455 159.943 20.9814 157.79 22.9875 156.084C24.9932 154.38 27.391 153.526 30.1812 153.526C31.5762 153.526 32.8997 153.801 34.1493 154.35C35.3994 154.9 36.5041 155.637 37.4634 156.561C38.4217 157.486 39.2075 158.57 39.8181 159.813C40.4287 161.057 40.7627 162.371 40.8209 163.759V164.279L40.9948 164.973V184.223C40.9948 185.553 41.2407 186.811 41.7329 187.995C42.2243 189.181 42.9055 190.207 43.7739 191.074C44.6423 191.941 45.6699 192.621 46.8572 193.112C48.0435 193.604 49.3028 193.849 50.6354 193.849C51.9085 193.849 53.1242 193.604 54.2834 193.112C55.4408 192.621 56.4547 191.941 57.3231 191.074C58.1915 190.207 58.8714 189.181 59.3641 187.995C59.8554 186.811 60.1022 185.554 60.1022 184.223V164.452C60.1022 163.99 60.0724 163.672 60.0155 163.498C60.1306 162.169 60.4931 160.912 61.1014 159.726C61.7092 158.542 62.4909 157.501 63.446 156.604C64.4016 155.709 65.487 155 66.7032 154.48C67.9193 153.959 69.2221 153.699 70.6117 153.699C72.0581 153.699 73.4344 153.959 74.7372 154.48C76.0401 155 77.2122 155.709 78.2549 156.604C79.2972 157.501 80.1358 158.57 80.7739 159.813C81.4102 161.057 81.7864 162.371 81.9029 163.758V207.983C81.9029 209.313 82.1502 210.556 82.6438 211.711C83.1379 212.868 83.8219 213.879 84.6944 214.746C85.5669 215.614 86.6001 216.294 87.7914 216.784C88.9828 217.276 90.2489 217.521 91.5871 217.521C92.867 217.521 94.0882 217.276 95.2512 216.784C96.4141 216.294 97.4321 215.614 98.3046 214.746C99.1771 213.879 99.8749 212.868 100.399 211.711C100.923 210.556 101.185 209.313 101.185 207.983V163.672C101.185 159.568 100.358 155.694 98.7065 152.052C97.055 148.41 94.8236 145.244 92.0133 142.557C89.2025 139.869 85.9431 137.744 82.2341 136.183C78.5238 134.623 74.6129 133.842 70.4993 133.842C66.4999 133.842 62.7909 134.55 59.371 135.966C55.951 137.383 52.9099 139.334 50.2446 141.819C47.4623 139.334 44.3469 137.383 40.8998 135.966C37.4514 134.55 33.786 133.842 29.9036 133.842C25.7886 133.842 21.92 134.622 18.2977 136.183C14.6754 137.744 11.5027 139.869 8.7791 142.557C6.0555 145.245 3.9113 148.41 2.34651 152.052C0.78171 155.694 0 159.568 0 163.672V207.983Z" fill="white"/>
<path d="M134.533 139.768C134.045 138.59 133.386 137.569 132.554 136.705C131.723 135.843 130.733 135.153 129.587 134.635C128.439 134.118 127.207 133.859 125.888 133.859C124.569 133.859 123.308 134.118 122.104 134.635C120.899 135.153 119.852 135.843 118.963 136.705C118.074 137.568 117.371 138.59 116.856 139.768C116.34 140.948 116.082 142.171 116.082 143.435V208.397C116.082 209.721 116.34 210.957 116.856 212.107C117.371 213.258 118.074 214.264 118.963 215.126C119.852 215.989 120.884 216.666 122.06 217.154C123.235 217.642 124.482 217.887 125.803 217.887C127.12 217.887 128.353 217.642 129.501 217.154C130.647 216.666 131.65 215.989 132.511 215.126C133.371 214.264 134.045 213.258 134.533 212.107C135.02 210.957 135.264 209.721 135.264 208.397V143.434C135.264 142.17 135.02 140.947 134.533 139.768Z" fill="white"/>
<path d="M260.169 139.758C259.682 138.582 259.024 137.562 258.194 136.701C257.364 135.839 256.376 135.15 255.232 134.634C254.086 134.117 252.855 133.858 251.539 133.858C250.222 133.858 248.963 134.117 247.761 134.634C246.559 135.15 245.513 135.839 244.626 136.701C243.739 137.562 243.037 138.582 242.522 139.758C242.007 140.936 241.75 142.156 241.75 143.418V208.266C241.75 209.587 242.007 210.822 242.522 211.969C243.037 213.118 243.739 214.122 244.626 214.983C245.513 215.845 246.544 216.52 247.718 217.007C248.89 217.494 250.135 217.739 251.454 217.739C252.769 217.739 254 217.494 255.145 217.007C256.289 216.52 257.291 215.845 258.151 214.983C259.009 214.122 259.681 213.118 260.168 211.969C260.654 210.822 260.898 209.587 260.898 208.266V143.418C260.899 142.156 260.655 140.936 260.169 139.758Z" fill="white"/>
<path d="M272.225 208.064C272.225 209.447 272.485 210.729 273.004 211.909C273.523 213.09 274.229 214.112 275.124 214.975C276.018 215.839 277.071 216.517 278.282 217.005C279.493 217.494 280.791 217.739 282.175 217.739C284.944 217.739 287.15 216.819 288.794 214.975C290.438 213.133 291.26 210.829 291.26 208.064V196.23H326.908V208.064C326.908 210.829 327.747 213.133 329.427 214.975C331.108 216.819 333.338 217.739 336.121 217.739C337.51 217.739 338.8 217.494 339.988 217.005C341.176 216.517 342.232 215.839 343.16 214.975C344.088 214.112 344.811 213.09 345.333 211.909C345.854 210.729 346.115 209.447 346.115 208.064V174.115C346.115 167.666 345.163 161.934 343.256 156.924C341.35 151.913 338.736 147.71 335.416 144.311C332.096 140.914 328.168 138.322 323.635 136.537C319.102 134.752 314.236 133.858 309.04 133.858C303.956 133.858 299.177 134.765 294.702 136.58C290.228 138.394 286.329 140.986 283.008 144.354C279.687 147.723 277.059 151.813 275.125 156.621C273.19 161.43 272.224 166.801 272.224 172.732V208.064H272.225ZM291.261 171.955C291.261 168.672 291.737 165.836 292.688 163.446C293.64 161.057 294.938 159.083 296.582 157.529C298.226 155.973 300.158 154.808 302.379 154.03C304.599 153.253 306.979 152.864 309.517 152.864C312.113 152.864 314.477 153.325 316.612 154.246C318.746 155.168 320.578 156.464 322.107 158.134C323.634 159.805 324.817 161.848 325.654 164.267C326.49 166.686 326.909 169.364 326.909 172.301V176.447H291.261V171.955H291.261Z" fill="white"/>
<path d="M59.0081 0C57.6254 0 56.3428 0.273417 55.1628 0.81933C53.9816 1.36662 52.9443 2.08502 52.0521 2.97637C51.1584 3.86864 50.4533 4.91734 49.9349 6.12523C49.4165 7.33312 49.1573 8.59881 49.1573 9.92139V104.043C49.1573 105.424 49.4165 106.718 49.9349 107.926C50.4533 109.133 51.1584 110.184 52.0521 111.074C52.9443 111.967 53.9816 112.67 55.1628 113.188C56.3428 113.705 57.6254 113.965 59.0081 113.965C60.3908 113.965 61.6867 113.706 62.8965 113.188C64.1062 112.67 65.1567 111.966 66.0504 111.074C66.9426 110.184 67.6491 109.133 68.1675 107.926C68.6859 106.718 68.9451 105.424 68.9451 104.043V73.9345L99.7928 74.0207C101.175 74.0207 102.457 73.762 103.638 73.244C104.818 72.7266 105.87 72.0077 106.792 71.0875C107.713 70.1681 108.434 69.118 108.952 67.9386C109.471 66.7605 109.73 65.4797 109.73 64.0998C109.73 62.7194 109.471 61.4404 108.952 60.261C108.434 59.0829 107.713 58.0328 106.792 57.1121C105.87 56.1927 104.818 55.473 103.638 54.9555C102.457 54.4376 101.175 54.1788 99.7928 54.1788H68.9451V19.8428H113.532C114.915 19.8428 116.196 19.584 117.377 19.0661C118.557 18.5486 119.581 17.8449 120.445 16.9526C121.309 16.0618 122 15.0117 122.518 13.8038C123.037 12.5959 123.296 11.3316 123.296 10.0076C123.296 8.62725 123.037 7.33312 122.518 6.12523C122 4.91734 121.309 3.85396 120.445 2.93325C119.581 2.01391 118.558 1.29413 117.377 0.776663C116.196 0.258735 114.915 0 113.532 0H59.0081Z" fill="white"/>
<path d="M120.183 76.8573C120.183 82.4944 121.234 87.7705 123.337 92.6878C125.439 97.6052 128.334 101.919 132.021 105.629C135.707 109.339 140.014 112.258 144.939 114.385C149.864 116.514 155.149 117.577 160.796 117.577C166.383 117.577 171.554 116.514 176.306 114.385C181.059 112.258 185.163 109.339 188.619 105.629C192.076 101.919 194.783 97.6056 196.741 92.6878C198.699 87.7705 199.68 82.4944 199.68 76.8573V42.8662C199.68 41.5441 199.434 40.3077 198.945 39.1567C198.455 38.0067 197.792 36.9997 196.958 36.1373C196.122 35.2748 195.128 34.5991 193.977 34.11C192.824 33.6219 191.586 33.377 190.262 33.377C188.936 33.377 187.698 33.6224 186.546 34.11C185.393 34.5995 184.356 35.2748 183.435 36.1373C182.513 36.9997 181.793 38.0071 181.275 39.1567C180.757 40.3077 180.498 41.5441 180.498 42.8662V76.8573C180.498 79.9066 180.036 82.7385 179.115 85.3552C178.193 87.9728 176.868 90.2441 175.14 92.1704C173.412 94.098 171.338 95.6211 168.918 96.7427C166.499 97.8639 163.79 98.4249 160.796 98.4249C157.742 98.4249 154.92 97.879 152.328 96.7858C149.736 95.694 147.474 94.1843 145.545 92.2566C143.614 90.3303 142.102 88.0723 141.008 85.4841C139.913 82.8963 139.366 80.0786 139.366 77.0298V42.8662C139.366 41.5441 139.107 40.3077 138.589 39.1567C138.07 38.0067 137.379 36.9997 136.515 36.1373C135.651 35.2748 134.628 34.5991 133.448 34.11C132.266 33.6219 131.014 33.377 129.689 33.377C128.363 33.377 127.125 33.6224 125.973 34.11C124.82 34.5995 123.813 35.2748 122.949 36.1373C122.084 36.9997 121.407 38.0071 120.918 39.1567C120.428 40.3077 120.184 41.5441 120.184 42.8662V76.8573H120.183Z" fill="white"/>
<path d="M210.478 107.283C210.509 107.378 210.633 107.767 210.875 108.277C210.95 108.436 211.029 108.591 211.111 108.744C211.622 109.696 212.26 110.531 213.026 111.249C213.914 112.082 214.962 112.744 216.166 113.233C217.37 113.721 218.632 113.965 219.95 113.965C221.212 113.965 222.416 113.721 223.564 113.231C224.71 112.743 225.7 112.081 226.531 111.247C227.363 110.414 228.022 109.422 228.509 108.271C228.997 107.121 229.241 105.885 229.241 104.561V71.5193C229.241 68.5292 229.774 65.7106 230.843 63.0646C231.911 60.4199 233.397 58.1335 235.302 56.2058C237.205 54.2795 239.443 52.7551 242.012 51.6334C244.58 50.5118 247.394 49.9512 250.453 49.9512C253.397 49.9512 256.182 50.5265 258.809 51.6766C261.435 52.8276 263.744 54.3809 265.736 56.3352C267.727 58.2913 269.315 60.5772 270.498 63.1939C271.681 65.8116 272.302 68.6154 272.359 71.6056V104.561C272.359 105.885 272.619 107.121 273.137 108.271C273.655 109.422 274.36 110.414 275.254 111.247C276.146 112.082 277.184 112.744 278.365 113.231C279.545 113.721 280.798 113.965 282.124 113.965C283.448 113.965 284.687 113.721 285.839 113.233C286.991 112.744 287.984 112.082 288.82 111.249C289.655 110.416 290.318 109.425 290.808 108.277C291.297 107.128 291.542 105.893 291.542 104.57V71.5634C291.542 65.9327 290.462 60.6474 288.302 55.7058C286.142 50.7655 283.204 46.4422 279.488 42.7355C275.773 39.0297 271.422 36.1144 266.44 33.9885C261.457 31.8627 256.143 30.7993 250.498 30.7993C244.851 30.7993 239.58 31.8632 234.685 33.9885C229.788 36.1144 225.511 39.0297 221.853 42.7355C218.194 46.4427 215.314 50.7655 213.212 55.7058C211.109 60.6474 210.058 65.9331 210.058 71.5634C210.081 82.55 210.12 106.161 210.478 107.283Z" fill="white"/>
<path d="M11.1095 252.051C11.1095 252.444 11.243 252.774 11.5104 253.043C11.7779 253.311 12.1068 253.445 12.4977 253.445C12.8881 253.445 13.2202 253.311 13.4927 253.043C13.7652 252.774 13.9019 252.444 13.9019 252.051V239.042C13.9019 238.609 13.9822 238.206 14.1428 237.835C14.3033 237.463 14.5235 237.138 14.8038 236.859C15.0836 236.58 15.413 236.361 15.791 236.2C16.1695 236.04 16.5714 235.961 16.9962 235.961C17.4315 235.961 17.8357 236.04 18.2091 236.2C18.5825 236.361 18.9087 236.58 19.189 236.859C19.4688 237.138 19.689 237.463 19.8501 237.835C20.0106 238.206 20.0914 238.599 20.0914 239.012V239.167V241.66C20.0914 242.053 20.2258 242.386 20.4946 242.659C20.7634 242.933 21.0942 243.069 21.4873 243.069C21.8906 243.069 22.2291 242.933 22.503 242.659C22.7769 242.385 22.9141 242.052 22.9141 241.66V239.043C22.9141 238.63 22.9916 238.235 23.1471 237.858C23.3022 237.482 23.5164 237.154 23.7907 236.875C24.0646 236.596 24.3853 236.374 24.7523 236.209C25.1193 236.044 25.5202 235.961 25.9542 235.961C26.3886 235.961 26.7942 236.041 27.1717 236.201C27.5493 236.361 27.8773 236.58 28.1566 236.859C28.436 237.138 28.6558 237.463 28.8159 237.835C28.976 238.207 29.0563 238.609 29.0563 239.043V252.052C29.0563 252.444 29.1957 252.775 29.4751 253.043C29.754 253.311 30.0898 253.446 30.4834 253.446C30.8761 253.446 31.2096 253.312 31.484 253.043C31.7578 252.775 31.895 252.444 31.895 252.052V239.074V238.935C31.895 238.119 31.7399 237.355 31.4298 236.643C31.1193 235.93 30.6981 235.306 30.1655 234.769C29.6329 234.232 29.0044 233.809 28.281 233.499C27.5571 233.189 26.7864 233.034 25.9698 233.034C25.0596 233.034 24.2219 233.225 23.4572 233.607C22.6916 233.989 22.0406 234.505 21.5029 235.156C20.9446 234.505 20.2799 233.989 19.5097 233.607C18.739 233.225 17.899 233.034 16.9888 233.034C16.1718 233.034 15.4066 233.189 14.6928 233.499C13.9794 233.809 13.356 234.232 12.8238 234.769C12.2912 235.306 11.8724 235.93 11.5673 236.643C11.2623 237.355 11.11 238.119 11.11 238.935V252.051H11.1095Z" fill="white"/>
<path d="M44.4277 253.18C45.2341 252.879 45.9635 252.458 46.6145 251.918L46.6301 252.136C46.6301 252.531 46.7549 252.866 47.0044 253.141C47.254 253.417 47.5765 253.554 47.972 253.554C48.3669 253.554 48.7 253.418 48.9702 253.144C49.2409 252.87 49.3757 252.537 49.3757 252.144V246.067V245.973C49.3546 244.94 49.1477 243.968 48.7546 243.059C48.361 242.149 47.8279 241.356 47.1554 240.679C46.4824 240.002 45.6933 239.468 44.7878 239.074C43.8817 238.682 42.9064 238.485 41.8609 238.485C40.8155 238.485 39.8369 238.684 38.9263 239.082C38.0152 239.48 37.2211 240.023 36.5431 240.71C35.8651 241.397 35.3293 242.201 34.9357 243.121C34.5425 244.04 34.3457 245.022 34.3457 246.066C34.3457 247.11 34.542 248.092 34.9352 249.011C35.3279 249.931 35.8632 250.732 36.5408 251.414C37.2179 252.096 38.012 252.636 38.9217 253.035C39.8314 253.432 40.8086 253.631 41.8536 253.631C42.7628 253.631 43.6212 253.481 44.4277 253.18ZM39.9764 250.496C39.397 250.243 38.8956 249.898 38.4717 249.46C38.0478 249.022 37.712 248.512 37.4634 247.929C37.2152 247.347 37.0913 246.725 37.0913 246.066C37.0913 245.406 37.2152 244.785 37.4634 244.203C37.7115 243.62 38.0474 243.113 38.4717 242.68C38.8956 242.247 39.3975 241.904 39.9764 241.652C40.5553 241.399 41.1811 241.273 41.8531 241.273C42.5353 241.273 43.1661 241.399 43.7455 241.652C44.3249 241.904 44.8286 242.247 45.258 242.68C45.6869 243.113 46.0232 243.62 46.2663 244.203C46.5095 244.785 46.631 245.406 46.631 246.066C46.631 246.725 46.5095 247.347 46.2663 247.929C46.0232 248.512 45.6869 249.022 45.258 249.46C44.8291 249.898 44.3249 250.243 43.7455 250.496C43.1661 250.749 42.5358 250.874 41.8531 250.874C41.1806 250.874 40.5553 250.749 39.9764 250.496Z" fill="white"/>
<path d="M52.1837 252.082C52.1837 252.279 52.2223 252.459 52.3007 252.624C52.3787 252.79 52.4828 252.934 52.6126 253.057C52.7429 253.181 52.8939 253.277 53.0654 253.344C53.237 253.411 53.4164 253.445 53.6035 253.445C53.9774 253.445 54.2921 253.316 54.5472 253.057C54.8018 252.8 54.9293 252.474 54.9293 252.082V246.413C54.9293 245.701 55.0665 245.03 55.3404 244.4C55.6143 243.771 55.9868 243.221 56.457 242.751C56.9272 242.281 57.4731 241.91 58.0933 241.636C58.714 241.363 59.3755 241.225 60.0788 241.225H60.1563C60.549 241.225 60.8853 241.096 61.1647 240.838C61.444 240.58 61.5835 240.255 61.5835 239.862C61.5835 239.47 61.4619 239.145 61.2188 238.887C60.9757 238.629 60.6215 238.5 60.1563 238.5H60.0788C58.9929 238.5 57.9718 238.709 57.0153 239.127C56.0588 239.545 55.2225 240.113 54.5059 240.83C53.7893 241.548 53.2232 242.387 52.8076 243.347C52.3915 244.307 52.1837 245.329 52.1837 246.413V252.082Z" fill="white"/>
<path d="M72.2706 252.996C72.4155 253.141 72.5784 253.246 72.7591 253.313C72.9399 253.381 73.1183 253.414 73.2945 253.414C73.4808 253.414 73.6537 253.376 73.8143 253.298C73.9744 253.221 74.1166 253.12 74.2409 252.996C74.3648 252.873 74.4634 252.725 74.5354 252.555C74.6079 252.385 74.6441 252.206 74.6441 252.021C74.6441 251.66 74.5203 251.36 74.2721 251.122L68.4396 245.655L73.3876 241.072C73.6771 240.803 73.8221 240.478 73.8221 240.096C73.8221 239.91 73.7831 239.735 73.7055 239.569C73.628 239.404 73.5271 239.26 73.4032 239.136C73.2794 239.012 73.1344 238.914 72.9688 238.841C72.8032 238.769 72.6275 238.733 72.4412 238.733C72.2756 238.733 72.1128 238.761 71.9527 238.818C71.7921 238.875 71.6448 238.966 71.5104 239.089L66.1123 244.092L66.1279 234.49C66.1279 234.118 65.9976 233.801 65.738 233.538C65.4779 233.274 65.1503 233.143 64.7553 233.143C64.5682 233.143 64.3915 233.179 64.225 233.251C64.0585 233.323 63.9103 233.419 63.78 233.538C63.6502 233.656 63.5488 233.798 63.4759 233.963C63.4029 234.129 63.3667 234.304 63.3667 234.49V252.098C63.3667 252.48 63.5016 252.8 63.7722 253.058C64.0429 253.317 64.3704 253.445 64.7549 253.445C65.1292 253.445 65.449 253.317 65.7141 253.058C65.9793 252.8 66.1119 252.48 66.1119 252.098V247.204L72.2706 252.996Z" fill="white"/>
<path d="M89.7366 247.313C90.1293 247.313 90.4499 247.189 90.6981 246.941C90.9463 246.693 91.0702 246.384 91.0702 246.012C91.0596 244.979 90.8532 244.006 90.4499 243.092C90.0467 242.178 89.5012 241.381 88.8136 240.7C88.1254 240.018 87.3217 239.482 86.4015 239.089C85.4807 238.697 84.5036 238.5 83.4696 238.5C82.425 238.5 81.4401 238.7 80.5148 239.097C79.589 239.495 78.7825 240.034 78.0949 240.715C77.4072 241.397 76.864 242.197 76.4663 243.116C76.0681 244.035 75.869 245.021 75.869 246.074C75.869 247.117 76.0681 248.098 76.4663 249.016C76.864 249.935 77.4072 250.735 78.0949 251.417C78.7825 252.098 79.589 252.638 80.5148 253.035C81.4401 253.433 82.425 253.631 83.4696 253.631C84.0692 253.631 84.6458 253.585 85.1991 253.492C85.7523 253.399 86.2381 253.265 86.6574 253.089C87.0763 252.914 87.4098 252.7 87.658 252.446C87.9062 252.194 88.03 251.902 88.03 251.572C88.03 251.386 87.9938 251.205 87.9213 251.029C87.8488 250.854 87.7506 250.702 87.6268 250.572C87.5029 250.444 87.3602 250.34 87.2001 250.263C87.0396 250.185 86.8666 250.147 86.6804 250.147C86.4216 250.147 86.1478 250.229 85.8583 250.394C85.5069 250.601 85.155 250.753 84.8036 250.851C84.4522 250.95 84.0072 250.998 83.4696 250.998C82.9113 250.998 82.381 250.906 81.8796 250.719C81.3781 250.534 80.9258 250.276 80.5221 249.945C80.1189 249.615 79.7776 249.225 79.4982 248.776C79.2188 248.327 79.0225 247.839 78.9087 247.313H89.7366ZM78.8321 245.021C78.9252 244.484 79.106 243.978 79.3748 243.503C79.6436 243.028 79.9849 242.613 80.3987 242.256C80.812 241.9 81.2827 241.621 81.8103 241.42C82.3379 241.219 82.9062 241.118 83.5164 241.118C84.116 241.118 84.6821 241.216 85.2147 241.412C85.7473 241.608 86.223 241.882 86.6418 242.232C87.0607 242.583 87.4121 242.996 87.6965 243.471C87.9805 243.946 88.1695 244.462 88.2626 245.02H78.8321V245.021Z" fill="white"/>
<path d="M92.9937 246.167C92.9937 247.22 93.1914 248.201 93.5877 249.109C93.9836 250.018 94.524 250.807 95.2085 251.479C95.893 252.15 96.6958 252.676 97.616 253.058C98.5363 253.44 99.5239 253.631 100.579 253.631C101.54 253.631 102.432 253.476 103.255 253.166C104.077 252.857 104.813 252.392 105.465 251.773C105.62 251.618 105.741 251.435 105.829 251.223C105.917 251.011 105.962 250.802 105.962 250.595C105.962 250.41 105.928 250.239 105.861 250.084C105.793 249.929 105.7 249.795 105.582 249.682C105.462 249.568 105.328 249.48 105.178 249.418C105.028 249.356 104.876 249.326 104.721 249.326C104.359 249.326 104.012 249.481 103.682 249.79C103.248 250.193 102.769 250.479 102.247 250.65C101.725 250.82 101.169 250.905 100.58 250.905C99.907 250.905 99.279 250.784 98.695 250.541C98.1105 250.299 97.6036 249.966 97.1752 249.543C96.7458 249.119 96.4072 248.621 96.159 248.048C95.9108 247.475 95.787 246.858 95.787 246.197V241.149H101.945C102.337 241.149 102.666 241.023 102.93 240.769C103.193 240.517 103.325 240.204 103.325 239.833C103.325 239.451 103.191 239.123 102.922 238.849C102.653 238.576 102.327 238.439 101.945 238.439H95.7861V235.403C95.7861 235.208 95.7471 235.024 95.6705 234.854C95.5934 234.684 95.4902 234.536 95.3617 234.413C95.2333 234.289 95.0814 234.191 94.9066 234.119C94.7314 234.046 94.552 234.01 94.3667 234.01C94.1814 234.01 94.0066 234.046 93.8419 234.119C93.6772 234.191 93.5308 234.291 93.4019 234.421C93.2735 234.55 93.173 234.7 93.1015 234.87C93.0294 235.04 92.9937 235.219 92.9937 235.404V246.167Z" fill="white"/>
<path d="M107.87 235.729C107.952 235.914 108.063 236.077 108.203 236.216C108.343 236.356 108.508 236.467 108.699 236.549C108.891 236.632 109.095 236.673 109.312 236.673C109.529 236.673 109.731 236.632 109.917 236.549C110.104 236.467 110.269 236.356 110.414 236.216C110.559 236.077 110.672 235.914 110.755 235.729C110.838 235.543 110.879 235.341 110.879 235.124C110.879 234.907 110.838 234.706 110.755 234.52C110.673 234.334 110.559 234.172 110.414 234.032C110.269 233.893 110.104 233.782 109.917 233.699C109.731 233.616 109.529 233.575 109.312 233.575C109.095 233.575 108.891 233.616 108.699 233.699C108.508 233.782 108.343 233.893 108.203 234.032C108.064 234.172 107.952 234.334 107.87 234.52C107.787 234.706 107.745 234.907 107.745 235.124C107.745 235.341 107.787 235.543 107.87 235.729ZM107.916 252.191C107.916 252.573 108.053 252.896 108.327 253.159C108.601 253.422 108.929 253.554 109.312 253.554C109.684 253.554 110.002 253.422 110.266 253.159C110.529 252.896 110.661 252.573 110.661 252.191V239.879C110.661 239.497 110.534 239.172 110.281 238.903C110.028 238.635 109.71 238.5 109.327 238.5C109.131 238.5 108.948 238.537 108.777 238.609C108.606 238.681 108.456 238.779 108.327 238.903C108.198 239.027 108.097 239.174 108.025 239.344C107.953 239.514 107.916 239.692 107.916 239.878V252.191H107.916Z" fill="white"/>
<path d="M113.345 252.098C113.345 252.294 113.383 252.475 113.461 252.64C113.539 252.805 113.642 252.947 113.771 253.066C113.901 253.185 114.05 253.278 114.221 253.345C114.392 253.412 114.57 253.445 114.756 253.445C115.139 253.445 115.457 253.319 115.711 253.066C115.964 252.813 116.09 252.49 116.09 252.098V245.795C116.09 245.165 116.201 244.574 116.424 244.022C116.646 243.47 116.954 242.987 117.347 242.573C117.74 242.16 118.202 241.838 118.735 241.605C119.268 241.373 119.849 241.257 120.48 241.257C121.111 241.257 121.695 241.379 122.233 241.621C122.77 241.864 123.239 242.192 123.637 242.604C124.035 243.018 124.348 243.5 124.575 244.052C124.802 244.605 124.922 245.196 124.932 245.825V245.857V252.098C124.932 252.49 125.067 252.813 125.338 253.066C125.608 253.319 125.936 253.445 126.32 253.445C126.705 253.445 127.028 253.319 127.288 253.066C127.548 252.813 127.678 252.49 127.678 252.098V245.872V245.795C127.678 244.793 127.494 243.849 127.127 242.96C126.759 242.073 126.252 241.298 125.605 240.637C124.958 239.977 124.197 239.456 123.322 239.073C122.447 238.691 121.503 238.5 120.488 238.5C119.484 238.5 118.547 238.692 117.678 239.073C116.808 239.456 116.052 239.977 115.41 240.637C114.769 241.298 114.264 242.073 113.897 242.96C113.529 243.848 113.346 244.793 113.346 245.795V245.857V252.098H113.345Z" fill="white"/>
<path d="M130.43 249.012C130.829 249.932 131.371 250.733 132.059 251.415C132.747 252.097 133.548 252.637 134.463 253.035C135.379 253.433 136.358 253.632 137.403 253.632C138.209 253.632 138.969 253.518 139.683 253.291C140.396 253.064 141.063 252.734 141.684 252.3C141.735 252.383 141.792 252.47 141.854 252.563C141.916 252.656 141.97 252.765 142.017 252.889C142.063 253.013 142.102 253.157 142.134 253.322C142.165 253.487 142.18 253.683 142.18 253.911C142.18 255.749 140.955 256.667 138.504 256.667C138.245 256.667 137.997 256.665 137.759 256.66C137.521 256.654 137.283 256.652 137.046 256.652C136.736 256.652 136.42 256.66 136.099 256.675C135.779 256.69 135.453 256.739 135.122 256.822C134.791 256.905 134.468 257.008 134.153 257.132C133.837 257.256 133.56 257.4 133.323 257.565C133.085 257.73 132.893 257.919 132.749 258.13C132.604 258.342 132.532 258.572 132.532 258.819C132.532 259.005 132.573 259.183 132.656 259.353C132.738 259.524 132.847 259.674 132.982 259.803C133.116 259.931 133.269 260.032 133.439 260.105C133.61 260.177 133.788 260.213 133.974 260.213C134.119 260.213 134.261 260.187 134.401 260.136C134.54 260.084 134.673 260.001 134.796 259.888C135.158 259.619 135.533 259.441 135.921 259.353C136.309 259.266 136.668 259.222 136.999 259.222C137.402 259.222 137.813 259.25 138.232 259.307C138.651 259.364 139.056 259.392 139.449 259.392C140.153 259.392 140.83 259.274 141.481 259.036C142.133 258.798 142.712 258.447 143.219 257.982C143.725 257.517 144.128 256.941 144.428 256.254C144.728 255.566 144.878 254.774 144.878 253.875C144.878 253.1 144.772 252.416 144.56 251.822C144.348 251.228 144.05 250.724 143.668 250.311C144.081 249.691 144.403 249.03 144.63 248.327C144.857 247.624 144.971 246.87 144.971 246.064C144.971 245.021 144.774 244.039 144.381 243.12C143.988 242.2 143.451 241.397 142.768 240.71C142.086 240.023 141.284 239.48 140.364 239.083C139.443 238.685 138.456 238.486 137.401 238.486C136.357 238.486 135.377 238.685 134.462 239.083C133.547 239.48 132.745 240.023 132.058 240.71C131.37 241.398 130.827 242.201 130.429 243.121C130.031 244.041 129.832 245.023 129.832 246.066C129.834 247.11 130.032 248.092 130.43 249.012ZM132.959 244.203C133.212 243.621 133.556 243.113 133.99 242.68C134.425 242.247 134.934 241.904 135.518 241.652C136.102 241.399 136.731 241.273 137.403 241.273C138.086 241.273 138.721 241.399 139.311 241.652C139.9 241.904 140.412 242.247 140.847 242.68C141.281 243.113 141.622 243.621 141.871 244.203C142.119 244.785 142.243 245.407 142.243 246.066C142.243 246.726 142.119 247.347 141.871 247.93C141.623 248.512 141.281 249.022 140.847 249.461C140.412 249.899 139.9 250.244 139.311 250.496C138.721 250.749 138.086 250.875 137.403 250.875C136.731 250.875 136.102 250.749 135.518 250.496C134.934 250.244 134.425 249.898 133.99 249.461C133.556 249.022 133.212 248.512 132.959 247.93C132.705 247.347 132.579 246.726 132.579 246.066C132.579 245.406 132.705 244.785 132.959 244.203Z" fill="white"/>
<path d="M167.402 247.313C167.794 247.313 168.115 247.189 168.363 246.941C168.611 246.693 168.736 246.384 168.736 246.012C168.725 244.979 168.518 244.006 168.115 243.092C167.712 242.178 167.166 241.381 166.479 240.7C165.79 240.018 164.987 239.482 164.066 239.089C163.146 238.697 162.169 238.5 161.135 238.5C160.09 238.5 159.105 238.7 158.18 239.097C157.254 239.495 156.448 240.034 155.76 240.715C155.072 241.397 154.53 242.197 154.131 243.116C153.733 244.035 153.534 245.021 153.534 246.074C153.534 247.117 153.733 248.098 154.131 249.016C154.53 249.935 155.072 250.735 155.76 251.417C156.448 252.098 157.254 252.638 158.18 253.035C159.105 253.433 160.09 253.631 161.135 253.631C161.734 253.631 162.311 253.585 162.864 253.492C163.417 253.399 163.903 253.265 164.322 253.089C164.741 252.914 165.075 252.7 165.323 252.446C165.571 252.194 165.696 251.902 165.696 251.572C165.696 251.386 165.659 251.205 165.587 251.029C165.514 250.854 165.416 250.702 165.292 250.572C165.168 250.444 165.025 250.34 164.865 250.263C164.705 250.185 164.532 250.147 164.345 250.147C164.087 250.147 163.813 250.229 163.523 250.394C163.171 250.601 162.82 250.753 162.468 250.851C162.117 250.95 161.672 250.998 161.134 250.998C160.576 250.998 160.046 250.906 159.544 250.719C159.043 250.534 158.59 250.276 158.187 249.945C157.783 249.615 157.442 249.225 157.163 248.776C156.884 248.327 156.687 247.839 156.573 247.313H167.402ZM156.498 245.021C156.591 244.484 156.771 243.978 157.04 243.503C157.309 243.028 157.65 242.613 158.064 242.256C158.478 241.9 158.948 241.621 159.476 241.42C160.003 241.219 160.572 241.118 161.182 241.118C161.781 241.118 162.348 241.216 162.88 241.412C163.413 241.608 163.889 241.882 164.307 242.232C164.726 242.583 165.078 242.996 165.362 243.471C165.646 243.946 165.835 244.462 165.928 245.02H156.498V245.021Z" fill="white"/>
<path d="M177.965 252.052C177.965 252.454 178.102 252.793 178.376 253.066C178.65 253.339 178.984 253.477 179.377 253.477C179.78 253.477 180.106 253.34 180.354 253.066C180.602 252.793 180.731 252.454 180.742 252.052L180.804 246.306C181.393 246.874 182.057 247.344 182.797 247.716C183.536 248.087 184.371 248.273 185.302 248.273C185.995 248.273 186.662 248.183 187.303 248.002C187.944 247.822 188.544 247.566 189.102 247.235C189.661 246.905 190.17 246.51 190.63 246.05C191.091 245.591 191.484 245.082 191.809 244.525C192.135 243.968 192.388 243.366 192.57 242.721C192.75 242.076 192.841 241.407 192.841 240.715C192.841 239.683 192.642 238.684 192.244 237.718C191.846 236.753 191.305 235.93 190.623 235.248C189.94 234.566 189.142 234.027 188.227 233.63C187.311 233.232 186.336 233.034 185.303 233.034C184.258 233.034 183.289 233.233 182.394 233.63C181.5 234.027 180.724 234.566 180.068 235.248C179.411 235.929 178.896 236.753 178.524 237.718C178.152 238.684 177.966 239.683 177.966 240.715V240.854V252.052H177.965ZM183.565 245.083C182.996 244.835 182.5 244.5 182.076 244.076C181.651 243.653 181.315 243.155 181.067 242.582C180.819 242.009 180.695 241.397 180.695 240.747C180.695 240.097 180.819 239.488 181.067 238.919C181.315 238.352 181.651 237.83 182.076 237.356C182.5 236.881 182.996 236.519 183.565 236.272C184.134 236.024 184.744 235.9 185.395 235.9C186.047 235.9 186.665 236.016 187.248 236.249C187.832 236.481 188.342 236.829 188.777 237.294C189.211 237.758 189.555 238.272 189.808 238.835C190.061 239.397 190.188 240.009 190.188 240.67C190.188 241.331 190.061 241.95 189.808 242.528C189.554 243.106 189.211 243.612 188.777 244.046C188.342 244.479 187.833 244.823 187.248 245.075C186.664 245.329 186.046 245.455 185.395 245.455C184.744 245.454 184.133 245.33 183.565 245.083Z" fill="white"/>
<path d="M194.934 246.352C194.934 247.354 195.121 248.296 195.493 249.179C195.865 250.061 196.374 250.833 197.02 251.494C197.667 252.155 198.426 252.676 199.301 253.058C200.174 253.44 201.118 253.631 202.132 253.631C203.135 253.631 204.06 253.44 204.908 253.058C205.756 252.676 206.485 252.155 207.095 251.494C207.705 250.833 208.183 250.061 208.53 249.179C208.876 248.296 209.05 247.354 209.05 246.352V246.275V239.863C209.05 239.481 208.923 239.159 208.67 238.895C208.416 238.632 208.093 238.5 207.701 238.5C207.514 238.5 207.336 238.537 207.165 238.609C206.994 238.681 206.847 238.779 206.723 238.902C206.599 239.026 206.498 239.17 206.421 239.335C206.343 239.501 206.304 239.676 206.304 239.861V246.327C206.304 246.956 206.203 247.546 206.002 248.098C205.801 248.65 205.52 249.132 205.158 249.544C204.797 249.957 204.361 250.281 203.85 250.518C203.339 250.756 202.768 250.874 202.139 250.874C201.51 250.874 200.926 250.758 200.389 250.526C199.853 250.294 199.386 249.977 198.988 249.575C198.59 249.172 198.276 248.701 198.043 248.159C197.811 247.618 197.69 247.038 197.68 246.419V239.861C197.68 239.48 197.544 239.157 197.274 238.895C197.003 238.632 196.681 238.5 196.307 238.5C195.922 238.5 195.597 238.632 195.332 238.895C195.067 239.158 194.934 239.481 194.934 239.863V246.352H194.934Z" fill="white"/>
<path d="M211.811 246.074C211.811 247.116 212.01 248.094 212.409 249.008C212.807 249.922 213.351 250.719 214.039 251.401C214.727 252.082 215.532 252.622 216.453 253.019C217.375 253.417 218.358 253.616 219.404 253.616C220.449 253.616 221.433 253.416 222.354 253.019C223.275 252.621 224.077 252.081 224.76 251.398C225.443 250.716 225.982 249.918 226.375 249.003C226.768 248.089 226.965 247.11 226.965 246.065C226.965 245.022 226.768 244.04 226.376 243.12C225.983 242.2 225.445 241.397 224.763 240.71C224.08 240.022 223.279 239.48 222.358 239.082C221.438 238.684 220.455 238.485 219.411 238.485C218.894 238.485 218.385 238.558 217.883 238.702C217.381 238.847 216.916 239.048 216.487 239.306C216.058 239.564 215.675 239.871 215.339 240.227C215.004 240.583 214.742 240.968 214.556 241.381V234.454C214.556 234.064 214.429 233.731 214.174 233.459C213.919 233.186 213.594 233.049 213.199 233.049C213.001 233.049 212.819 233.086 212.653 233.158C212.487 233.23 212.341 233.331 212.216 233.459C212.092 233.589 211.992 233.738 211.92 233.909C211.847 234.079 211.811 234.262 211.811 234.458V246.074ZM214.951 244.188C215.204 243.605 215.547 243.098 215.981 242.665C216.414 242.232 216.925 241.892 217.514 241.644C218.103 241.397 218.732 241.273 219.404 241.273C220.075 241.273 220.705 241.397 221.293 241.644C221.881 241.892 222.392 242.232 222.826 242.665C223.259 243.098 223.6 243.605 223.848 244.188C224.096 244.77 224.22 245.397 224.22 246.066C224.22 246.726 224.096 247.347 223.848 247.93C223.6 248.512 223.259 249.02 222.826 249.453C222.392 249.885 221.881 250.228 221.293 250.481C220.704 250.734 220.074 250.859 219.404 250.859C218.733 250.859 218.103 250.733 217.514 250.481C216.926 250.228 216.414 249.885 215.981 249.453C215.547 249.02 215.204 248.512 214.951 247.93C214.698 247.347 214.572 246.726 214.572 246.066C214.572 245.396 214.698 244.77 214.951 244.188Z" fill="white"/>
<path d="M229.525 248.273C229.525 249.047 229.657 249.752 229.92 250.386C230.184 251.021 230.548 251.569 231.014 252.028C231.479 252.488 232.027 252.841 232.658 253.089C233.289 253.336 233.971 253.46 234.705 253.46C235.098 253.46 235.419 253.334 235.667 253.081C235.915 252.828 236.039 252.505 236.039 252.113C236.039 251.741 235.913 251.424 235.66 251.16C235.406 250.897 235.083 250.765 234.69 250.765C233.935 250.765 233.343 250.551 232.914 250.123C232.484 249.694 232.27 249.077 232.27 248.272V234.52C232.27 234.324 232.232 234.141 232.154 233.97C232.076 233.8 231.973 233.653 231.844 233.529C231.714 233.405 231.565 233.31 231.394 233.243C231.223 233.176 231.045 233.142 230.859 233.142C230.486 233.142 230.171 233.274 229.912 233.537C229.654 233.8 229.524 234.128 229.524 234.521V248.273H229.525Z" fill="white"/>
<path d="M237.917 235.729C237.999 235.914 238.11 236.077 238.25 236.216C238.39 236.356 238.555 236.467 238.746 236.549C238.938 236.632 239.142 236.673 239.359 236.673C239.577 236.673 239.778 236.632 239.964 236.549C240.151 236.467 240.316 236.356 240.461 236.216C240.606 236.077 240.719 235.914 240.802 235.729C240.885 235.543 240.926 235.341 240.926 235.124C240.926 234.907 240.885 234.706 240.802 234.52C240.719 234.334 240.606 234.172 240.461 234.032C240.316 233.893 240.151 233.782 239.964 233.699C239.778 233.616 239.576 233.575 239.359 233.575C239.142 233.575 238.938 233.616 238.746 233.699C238.555 233.782 238.39 233.893 238.25 234.032C238.111 234.172 237.999 234.334 237.917 234.52C237.834 234.706 237.792 234.907 237.792 235.124C237.792 235.341 237.834 235.543 237.917 235.729ZM237.963 252.191C237.963 252.573 238.1 252.896 238.374 253.159C238.648 253.422 238.976 253.554 239.359 253.554C239.731 253.554 240.049 253.422 240.313 253.159C240.576 252.896 240.708 252.573 240.708 252.191V239.879C240.708 239.497 240.581 239.172 240.328 238.903C240.074 238.635 239.757 238.5 239.374 238.5C239.178 238.5 238.995 238.537 238.824 238.609C238.653 238.681 238.503 238.779 238.374 238.903C238.245 239.027 238.144 239.174 238.072 239.344C238 239.514 237.963 239.692 237.963 239.878V252.191H237.963Z" fill="white"/>
<path d="M243.598 249.078C243.994 249.987 244.537 250.776 245.226 251.447C245.916 252.119 246.721 252.648 247.642 253.035C248.562 253.422 249.55 253.615 250.604 253.615C251.586 253.615 252.53 253.441 253.435 253.094C254.34 252.746 255.113 252.245 255.754 251.591C255.919 251.425 256.041 251.243 256.119 251.046C256.196 250.849 256.235 250.652 256.235 250.456C256.235 250.249 256.191 250.064 256.103 249.899C256.015 249.733 255.904 249.592 255.77 249.472C255.635 249.354 255.488 249.263 255.327 249.202C255.167 249.14 255.02 249.109 254.885 249.109C254.771 249.109 254.658 249.127 254.544 249.163C254.43 249.199 254.321 249.243 254.218 249.294L253.132 250.053C252.698 250.353 252.264 250.556 251.83 250.665C251.396 250.773 250.946 250.828 250.48 250.828C249.797 250.828 249.172 250.694 248.603 250.426C248.034 250.157 247.541 249.805 247.122 249.366C246.703 248.928 246.377 248.42 246.145 247.843C245.912 247.266 245.796 246.668 245.796 246.05C245.796 245.441 245.912 244.854 246.145 244.287C246.377 243.721 246.698 243.218 247.106 242.78C247.515 242.342 247.998 241.988 248.556 241.72C249.115 241.452 249.714 241.308 250.356 241.287C250.852 241.287 251.322 241.341 251.767 241.45C252.212 241.558 252.667 241.762 253.132 242.062L254.218 242.836C254.425 242.95 254.642 243.006 254.869 243.006C255.004 243.006 255.151 242.976 255.311 242.914C255.472 242.852 255.622 242.764 255.761 242.65C255.9 242.537 256.017 242.395 256.11 242.224C256.203 242.054 256.25 241.865 256.25 241.659C256.25 241.473 256.208 241.282 256.126 241.086C256.043 240.89 255.919 240.704 255.754 240.529C255.102 239.878 254.329 239.378 253.435 239.026C252.54 238.675 251.596 238.5 250.604 238.5C249.539 238.5 248.543 238.699 247.618 239.096C246.692 239.494 245.887 240.038 245.202 240.73C244.518 241.422 243.98 242.232 243.589 243.161C243.199 244.091 243.003 245.087 243.003 246.15C243.004 247.194 243.202 248.17 243.598 249.078Z" fill="white"/>
<path d="M258.5 235.729C258.583 235.914 258.694 236.077 258.834 236.216C258.974 236.356 259.139 236.467 259.33 236.549C259.521 236.632 259.725 236.673 259.943 236.673C260.16 236.673 260.362 236.632 260.548 236.549C260.734 236.467 260.899 236.356 261.044 236.216C261.189 236.077 261.303 235.914 261.386 235.729C261.468 235.543 261.51 235.341 261.51 235.124C261.51 234.907 261.468 234.706 261.386 234.52C261.303 234.334 261.189 234.172 261.044 234.032C260.899 233.893 260.734 233.782 260.548 233.699C260.362 233.616 260.16 233.575 259.943 233.575C259.726 233.575 259.521 233.616 259.33 233.699C259.139 233.782 258.973 233.893 258.834 234.032C258.694 234.172 258.583 234.334 258.5 234.52C258.417 234.706 258.376 234.907 258.376 235.124C258.376 235.341 258.417 235.543 258.5 235.729ZM258.546 252.191C258.546 252.573 258.683 252.896 258.958 253.159C259.231 253.422 259.56 253.554 259.942 253.554C260.315 253.554 260.633 253.422 260.896 253.159C261.16 252.896 261.292 252.573 261.292 252.191V239.879C261.292 239.497 261.165 239.172 260.912 238.903C260.658 238.635 260.341 238.5 259.958 238.5C259.761 238.5 259.578 238.537 259.408 238.609C259.237 238.681 259.087 238.779 258.958 238.903C258.828 239.027 258.727 239.174 258.655 239.344C258.583 239.514 258.546 239.692 258.546 239.878V252.191Z" fill="white"/>
<path d="M264.184 249.012C264.583 249.931 265.125 250.732 265.813 251.415C266.501 252.097 267.302 252.637 268.217 253.035C269.133 253.433 270.112 253.632 271.157 253.632C272.201 253.632 273.181 253.436 274.096 253.043C275.011 252.651 275.81 252.116 276.493 251.44C277.175 250.764 277.715 249.974 278.113 249.071C278.512 248.167 278.716 247.2 278.726 246.167V246.074V234.475C278.726 234.072 278.594 233.734 278.331 233.46C278.067 233.187 277.739 233.05 277.346 233.05C276.953 233.05 276.627 233.187 276.369 233.46C276.11 233.734 275.981 234.072 275.981 234.475V241.258C275.753 240.822 275.489 240.432 275.19 240.09C274.89 239.747 274.546 239.457 274.158 239.218C273.77 238.979 273.328 238.798 272.832 238.673C272.335 238.548 271.777 238.486 271.157 238.486C270.112 238.486 269.133 238.685 268.217 239.083C267.302 239.481 266.501 240.023 265.813 240.71C265.125 241.398 264.582 242.201 264.184 243.121C263.787 244.041 263.587 245.023 263.587 246.066C263.588 247.11 263.787 248.091 264.184 249.012ZM266.713 244.203C266.966 243.62 267.31 243.113 267.744 242.68C268.179 242.247 268.688 241.904 269.272 241.652C269.856 241.399 270.485 241.273 271.157 241.273C271.839 241.273 272.473 241.399 273.057 241.652C273.641 241.904 274.151 242.247 274.585 242.68C275.019 243.113 275.361 243.62 275.609 244.203C275.857 244.785 275.981 245.406 275.981 246.066C275.981 246.726 275.857 247.347 275.609 247.929C275.361 248.512 275.019 249.022 274.585 249.46C274.15 249.898 273.641 250.243 273.057 250.496C272.473 250.749 271.84 250.875 271.157 250.875C270.484 250.875 269.856 250.748 269.272 250.496C268.688 250.243 268.179 249.898 267.744 249.46C267.31 249.022 266.966 248.512 266.713 247.929C266.459 247.347 266.333 246.726 266.333 246.066C266.333 245.406 266.459 244.785 266.713 244.203Z" fill="white"/>
<path d="M290.934 253.18C291.741 252.879 292.47 252.458 293.121 251.918L293.137 252.136C293.137 252.531 293.261 252.866 293.511 253.141C293.761 253.417 294.083 253.554 294.478 253.554C294.873 253.554 295.207 253.418 295.477 253.144C295.747 252.87 295.882 252.537 295.882 252.144V246.067V245.973C295.861 244.94 295.654 243.968 295.261 243.059C294.868 242.149 294.334 241.356 293.662 240.679C292.989 240.002 292.2 239.468 291.294 239.074C290.388 238.682 289.413 238.485 288.367 238.485C287.322 238.485 286.343 238.684 285.432 239.082C284.522 239.48 283.727 240.023 283.049 240.71C282.371 241.397 281.835 242.201 281.442 243.121C281.049 244.04 280.852 245.022 280.852 246.066C280.852 247.11 281.048 248.092 281.441 249.011C281.834 249.931 282.369 250.732 283.047 251.414C283.724 252.096 284.518 252.636 285.428 253.035C286.338 253.432 287.315 253.631 288.359 253.631C289.269 253.631 290.127 253.481 290.934 253.18ZM286.482 250.496C285.903 250.243 285.402 249.898 284.978 249.46C284.554 249.022 284.218 248.512 283.969 247.929C283.721 247.347 283.597 246.725 283.597 246.066C283.597 245.406 283.721 244.785 283.969 244.203C284.218 243.62 284.553 243.113 284.978 242.68C285.402 242.247 285.903 241.904 286.482 241.652C287.061 241.399 287.687 241.273 288.359 241.273C289.042 241.273 289.673 241.399 290.252 241.652C290.831 241.904 291.335 242.247 291.764 242.68C292.193 243.113 292.529 243.62 292.772 244.203C293.016 244.785 293.137 245.406 293.137 246.066C293.137 246.725 293.016 247.347 292.772 247.929C292.529 248.512 292.193 249.022 291.764 249.46C291.335 249.898 290.831 250.243 290.252 250.496C289.673 250.749 289.042 250.874 288.359 250.874C287.687 250.874 287.061 250.749 286.482 250.496Z" fill="white"/>
<path d="M298.589 249.012C298.987 249.931 299.53 250.732 300.217 251.415C300.905 252.097 301.707 252.637 302.622 253.035C303.537 253.433 304.516 253.632 305.561 253.632C306.606 253.632 307.585 253.436 308.5 253.043C309.415 252.651 310.215 252.116 310.897 251.44C311.579 250.764 312.12 249.974 312.517 249.071C312.916 248.167 313.12 247.2 313.13 246.167V246.074V234.475C313.13 234.072 312.999 233.734 312.735 233.46C312.471 233.187 312.143 233.05 311.75 233.05C311.357 233.05 311.031 233.187 310.773 233.46C310.515 233.734 310.385 234.072 310.385 234.475V241.258C310.158 240.822 309.894 240.432 309.594 240.09C309.294 239.747 308.95 239.457 308.563 239.218C308.175 238.979 307.733 238.798 307.236 238.673C306.74 238.548 306.182 238.486 305.561 238.486C304.516 238.486 303.537 238.685 302.622 239.083C301.707 239.481 300.905 240.023 300.217 240.71C299.53 241.398 298.987 242.201 298.589 243.121C298.191 244.041 297.992 245.023 297.992 246.066C297.992 247.11 298.191 248.091 298.589 249.012ZM301.117 244.203C301.37 243.62 301.714 243.113 302.149 242.68C302.583 242.247 303.092 241.904 303.676 241.652C304.26 241.399 304.889 241.273 305.561 241.273C306.244 241.273 306.877 241.399 307.461 241.652C308.045 241.904 308.555 242.247 308.989 242.68C309.424 243.113 309.765 243.62 310.013 244.203C310.261 244.785 310.386 245.406 310.386 246.066C310.386 246.726 310.262 247.347 310.013 247.929C309.765 248.512 309.424 249.022 308.989 249.46C308.555 249.898 308.046 250.243 307.461 250.496C306.877 250.749 306.244 250.875 305.561 250.875C304.889 250.875 304.26 250.748 303.676 250.496C303.092 250.243 302.583 249.898 302.149 249.46C301.714 249.022 301.37 248.512 301.117 247.929C300.863 247.347 300.737 246.726 300.737 246.066C300.737 245.406 300.864 244.785 301.117 244.203Z" fill="white"/>
<path d="M329.061 247.313C329.454 247.313 329.775 247.189 330.022 246.941C330.271 246.693 330.395 246.384 330.395 246.012C330.384 244.979 330.178 244.006 329.774 243.092C329.371 242.178 328.826 241.381 328.138 240.7C327.45 240.018 326.646 239.482 325.726 239.089C324.805 238.697 323.828 238.5 322.794 238.5C321.749 238.5 320.764 238.7 319.839 239.097C318.913 239.495 318.107 240.034 317.419 240.715C316.732 241.397 316.188 242.197 315.791 243.116C315.392 244.035 315.193 245.021 315.193 246.074C315.193 247.117 315.392 248.098 315.791 249.016C316.188 249.935 316.732 250.735 317.419 251.417C318.107 252.098 318.913 252.638 319.839 253.035C320.764 253.433 321.749 253.631 322.794 253.631C323.394 253.631 323.97 253.585 324.523 253.492C325.077 253.399 325.562 253.265 325.981 253.089C326.4 252.914 326.734 252.7 326.982 252.446C327.23 252.194 327.354 251.902 327.354 251.572C327.354 251.386 327.318 251.205 327.245 251.029C327.173 250.854 327.075 250.702 326.951 250.572C326.827 250.444 326.684 250.34 326.524 250.263C326.363 250.185 326.191 250.147 326.004 250.147C325.746 250.147 325.472 250.229 325.182 250.394C324.83 250.601 324.479 250.753 324.128 250.851C323.776 250.95 323.331 250.998 322.793 250.998C322.235 250.998 321.705 250.906 321.203 250.719C320.702 250.534 320.249 250.276 319.846 249.945C319.443 249.615 319.101 249.225 318.822 248.776C318.543 248.327 318.346 247.839 318.233 247.313H329.061ZM318.156 245.021C318.25 244.484 318.43 243.978 318.7 243.503C318.968 243.028 319.31 242.613 319.724 242.256C320.137 241.9 320.608 241.621 321.135 241.42C321.663 241.219 322.231 241.118 322.842 241.118C323.441 241.118 324.007 241.216 324.54 241.412C325.073 241.608 325.548 241.882 325.967 242.232C326.386 242.583 326.737 242.996 327.022 243.471C327.306 243.946 327.495 244.462 327.588 245.02H318.156V245.021Z" fill="white"/>
<path d="M211.966 109.035L213.321 106.082C213.321 106.082 215.542 107.87 215.623 108.113C215.704 108.357 213.267 109.901 212.996 109.928" fill="white"/>
<path d="M229.242 101.165H210.234V116.727H229.242V101.165Z" fill="white"/>
</svg>
