<svg width="354" height="242" viewBox="0 0 354 242" fill="none" xmlns="http://www.w3.org/2000/svg">
<path fill-rule="evenodd" clip-rule="evenodd" d="M152.082 134.951L162.639 129.388C164.939 128.175 167.882 128.895 169.211 130.995L169.605 131.618C170.934 133.719 170.145 136.405 167.845 137.617L157.288 143.181C154.987 144.393 152.044 143.673 150.715 141.573L150.321 140.95C148.993 138.85 149.781 136.164 152.082 134.951Z" fill="white"/>
<path d="M52.5 202.892C52.5 203.914 52.7181 204.87 53.1543 205.759C53.5905 206.648 54.1725 207.426 54.8991 208.092C55.6258 208.758 56.4866 209.282 57.4807 209.658C58.4747 210.036 59.5296 210.225 60.6442 210.225C61.7106 210.225 62.7172 210.036 63.662 209.658C64.6067 209.282 65.4435 208.758 66.1701 208.092C66.8968 207.426 67.4787 206.648 67.9149 205.759C68.3511 204.87 68.5703 203.915 68.5703 202.892L68.8618 169.159C68.8618 168.937 68.8492 168.737 68.8251 168.559C68.7999 168.381 68.7632 168.182 68.716 167.959C69.1061 165.959 70.1463 164.304 71.8324 162.992C73.5195 161.682 75.5359 161.025 77.8826 161.025C79.0559 161.025 80.1684 161.237 81.2191 161.659C82.2698 162.082 83.1988 162.648 84.0062 163.358C84.8115 164.07 85.4731 164.904 85.9859 165.858C86.4997 166.815 86.7807 167.825 86.8289 168.891V169.291L86.9747 169.824V184.624C86.9747 185.647 87.1812 186.614 87.5954 187.524C88.0085 188.436 88.5811 189.223 89.3119 189.891C90.0428 190.558 90.9057 191.08 91.905 191.457C92.9022 191.835 93.9612 192.023 95.0822 192.023C96.1527 192.023 97.1751 191.835 98.1502 191.457C99.1233 191.08 99.9758 190.557 100.707 189.891C101.437 189.224 102.009 188.436 102.423 187.524C102.836 186.613 103.044 185.647 103.044 184.624V169.424C103.044 169.069 103.019 168.824 102.97 168.691C103.068 167.669 103.372 166.703 103.884 165.791C104.395 164.881 105.053 164.081 105.856 163.391C106.659 162.703 107.573 162.157 108.595 161.758C109.617 161.358 110.713 161.158 111.882 161.158C113.099 161.158 114.256 161.358 115.352 161.758C116.448 162.157 117.433 162.703 118.31 163.391C119.187 164.08 119.892 164.903 120.428 165.857C120.963 166.814 121.279 167.824 121.378 168.89V202.891C121.378 203.914 121.586 204.869 122.001 205.758C122.416 206.647 122.992 207.425 123.726 208.091C124.46 208.757 125.328 209.281 126.33 209.657C127.333 210.035 128.397 210.224 129.522 210.224C130.598 210.224 131.626 210.035 132.604 209.657C133.582 209.281 134.438 208.757 135.172 208.091C135.906 207.425 136.492 206.647 136.932 205.758C137.373 204.869 137.593 203.914 137.593 202.891V168.824C137.593 165.669 136.898 162.691 135.51 159.891C134.12 157.091 132.244 154.657 129.881 152.591C127.517 150.524 124.776 148.891 121.657 147.691C118.536 146.49 115.248 145.89 111.789 145.89C108.426 145.89 105.307 146.435 102.43 147.524C99.5543 148.614 96.9968 150.114 94.756 152.024C92.4167 150.114 89.7963 148.614 86.8971 147.524C83.9967 146.435 80.915 145.89 77.6498 145.89C74.1895 145.89 70.9358 146.49 67.8898 147.691C64.8437 148.891 62.1751 150.524 59.885 152.591C57.595 154.657 55.7914 157.091 54.4755 159.891C53.1595 162.691 52.5021 165.669 52.5021 168.824V202.892H52.5Z" fill="white"/>
<path d="M161.525 148.091C160.822 147.425 159.985 146.891 159.016 146.491C158.046 146.092 157.004 145.891 155.89 145.891C154.775 145.891 153.709 146.092 152.69 146.491C151.672 146.891 150.787 147.425 150.035 148.091C149.285 148.757 148.69 149.547 148.254 150.458C147.818 151.37 147.6 152.314 147.6 153.292V203.492C147.6 204.515 147.818 205.47 148.254 206.359C148.69 207.248 149.285 208.026 150.035 208.692C150.786 209.359 151.66 209.882 152.654 210.258C153.647 210.635 154.702 210.825 155.817 210.825C156.931 210.825 157.973 210.635 158.943 210.258C159.912 209.882 160.76 209.358 161.488 208.692C162.215 208.026 162.784 207.248 163.196 206.359C163.608 205.47 163.815 204.516 163.815 203.492V153.292C163.815 152.315 163.608 151.37 163.196 150.458C162.785 149.547 162.228 148.757 161.525 148.091Z" fill="white"/>
<path d="M264.258 134.358C264.72 135.336 265.35 136.192 266.149 136.925C266.948 137.658 267.882 138.236 268.95 138.658C270.017 139.081 271.181 139.292 272.441 139.292C273.653 139.292 274.792 139.081 275.86 138.658C276.927 138.236 277.86 137.658 278.66 136.925C279.46 136.192 280.103 135.337 280.588 134.358C281.073 133.381 281.315 132.314 281.315 131.158C281.315 130.048 281.072 129.003 280.588 128.025C280.102 127.048 279.46 126.191 278.66 125.458C277.86 124.724 276.927 124.147 275.86 123.724C274.792 123.303 273.653 123.091 272.441 123.091C271.18 123.091 270.016 123.303 268.95 123.724C267.882 124.147 266.949 124.724 266.149 125.458C265.349 126.191 264.719 127.047 264.258 128.025C263.797 129.002 263.568 130.047 263.568 131.158C263.567 132.314 263.797 133.381 264.258 134.358ZM264.225 203.491C264.225 204.514 264.443 205.469 264.879 206.358C265.315 207.247 265.91 208.025 266.661 208.691C267.411 209.357 268.285 209.881 269.279 210.257C270.272 210.634 271.327 210.824 272.442 210.824C273.556 210.824 274.598 210.634 275.568 210.257C276.537 209.881 277.385 209.357 278.113 208.691C278.84 208.025 279.409 207.247 279.821 206.358C280.233 205.469 280.44 204.515 280.44 203.491V153.291C280.44 152.314 280.233 151.369 279.821 150.457C279.409 149.546 278.852 148.757 278.15 148.09C277.447 147.424 276.61 146.89 275.642 146.49C274.672 146.091 273.629 145.89 272.515 145.89C271.4 145.89 270.334 146.091 269.316 146.49C268.297 146.89 267.412 147.424 266.661 148.09C265.91 148.757 265.315 149.546 264.879 150.457C264.443 151.369 264.225 152.313 264.225 153.291V203.491V203.491Z" fill="white"/>
<path d="M291.623 203.292C291.623 204.358 291.842 205.348 292.28 206.258C292.719 207.17 293.314 207.958 294.07 208.625C294.824 209.291 295.713 209.815 296.736 210.191C297.758 210.568 298.854 210.758 300.023 210.758C302.36 210.758 304.223 210.048 305.611 208.624C306.998 207.202 307.692 205.424 307.692 203.291V194.157H337.785V203.291C337.785 205.424 338.494 207.202 339.913 208.624C341.331 210.047 343.214 210.758 345.563 210.758C346.737 210.758 347.825 210.568 348.828 210.191C349.831 209.815 350.723 209.291 351.505 208.625C352.288 207.959 352.899 207.17 353.339 206.258C353.78 205.348 354 204.358 354 203.292V177.092C354 172.115 353.196 167.692 351.586 163.825C349.977 159.958 347.772 156.715 344.968 154.092C342.165 151.47 338.849 149.47 335.023 148.092C331.197 146.715 327.09 146.026 322.702 146.026C318.412 146.026 314.377 146.725 310.6 148.126C306.823 149.526 303.532 151.526 300.728 154.126C297.924 156.725 295.706 159.882 294.074 163.592C292.441 167.304 291.624 171.449 291.624 176.026V203.292H291.623ZM307.692 175.425C307.692 172.891 308.094 170.703 308.897 168.858C309.7 167.014 310.796 165.491 312.184 164.291C313.572 163.091 315.203 162.191 317.078 161.591C318.952 160.991 320.961 160.691 323.104 160.691C325.296 160.691 327.291 161.047 329.093 161.758C330.894 162.469 332.44 163.469 333.731 164.758C335.021 166.047 336.019 167.625 336.726 169.491C337.432 171.358 337.785 173.424 337.785 175.691V178.891H307.692V175.425V175.425Z" fill="white"/>
<path d="M111.595 43.501C110.426 43.501 109.343 43.7128 108.345 44.1346C107.346 44.5573 106.47 45.1123 105.715 45.8015C104.959 46.4907 104.363 47.3017 103.925 48.2353C103.487 49.169 103.268 50.1467 103.268 51.1686V123.902C103.268 124.969 103.487 125.969 103.925 126.902C104.363 127.836 104.959 128.647 105.715 129.336C106.469 130.025 107.345 130.57 108.345 130.969C109.342 131.369 110.426 131.569 111.595 131.569C112.764 131.569 113.859 131.369 114.883 130.969C115.905 130.57 116.793 130.025 117.548 129.336C118.302 128.648 118.9 127.836 119.338 126.902C119.776 125.969 119.995 124.969 119.995 123.902V100.635L146.07 100.703C147.239 100.703 148.321 100.502 149.32 100.103C150.318 99.7028 151.207 99.1478 151.986 98.4356C152.764 97.7253 153.373 96.9134 153.811 96.0018C154.25 95.0911 154.469 94.1019 154.469 93.035C154.469 91.9681 154.25 90.9798 153.811 90.0682C153.373 89.1576 152.764 88.3466 151.986 87.6344C151.207 86.9241 150.318 86.3682 149.32 85.9675C148.322 85.5678 147.239 85.3674 146.07 85.3674H119.995V58.8342H157.684C158.853 58.8342 159.935 58.6339 160.934 58.2342C161.932 57.8344 162.797 57.29 163.527 56.6008C164.258 55.9125 164.842 55.1006 165.281 54.167C165.719 53.2333 165.938 52.2565 165.938 51.2337C165.938 50.1668 165.719 49.1671 165.281 48.2334C164.842 47.2998 164.258 46.4783 163.527 45.767C162.797 45.0567 161.932 44.5007 160.934 44.1001C159.936 43.7003 158.853 43.5 157.684 43.5H111.595V43.501Z" fill="white"/>
<path d="M163.305 99.8092C163.305 104.166 164.193 108.243 165.97 112.043C167.747 115.842 170.194 119.176 173.311 122.042C176.426 124.909 180.067 127.165 184.231 128.809C188.394 130.454 192.861 131.275 197.634 131.275C202.356 131.275 206.727 130.454 210.744 128.809C214.761 127.165 218.23 124.908 221.152 122.042C224.073 119.175 226.361 115.842 228.018 112.043C229.672 108.243 230.501 104.165 230.501 99.8092V73.5425C230.501 72.5207 230.293 71.565 229.88 70.6754C229.466 69.7868 228.906 69.0085 228.2 68.3423C227.493 67.6761 226.654 67.1537 225.681 66.776C224.706 66.3993 223.659 66.2095 222.54 66.2095C221.419 66.2095 220.373 66.3993 219.4 66.776C218.426 67.1537 217.549 67.6761 216.77 68.3423C215.991 69.0085 215.383 69.7868 214.944 70.6754C214.506 71.565 214.287 72.5207 214.287 73.5425V99.8092C214.287 102.165 213.897 104.354 213.118 106.376C212.339 108.399 211.219 110.154 209.758 111.643C208.297 113.132 206.544 114.31 204.5 115.176C202.455 116.043 200.165 116.476 197.634 116.476C195.052 116.476 192.667 116.054 190.476 115.21C188.285 114.366 186.373 113.199 184.743 111.71C183.111 110.221 181.833 108.477 180.908 106.476C179.982 104.477 179.521 102.299 179.521 99.9425V73.5425C179.521 72.5207 179.302 71.565 178.863 70.6754C178.425 69.7868 177.841 69.0085 177.11 68.3423C176.379 67.6761 175.514 67.1537 174.517 66.776C173.519 66.3993 172.46 66.2095 171.34 66.2095C170.219 66.2095 169.172 66.3993 168.199 66.776C167.225 67.1537 166.374 67.6761 165.643 68.3423C164.912 69.0085 164.34 69.7868 163.926 70.6754C163.512 71.565 163.306 72.5207 163.306 73.5425V99.8092H163.305Z" fill="white"/>
<path d="M239.234 124.188C239.234 125.21 239.464 126.165 239.924 127.052C240.386 127.94 240.992 128.705 241.743 129.349C242.493 129.993 243.379 130.504 244.398 130.88C245.416 131.257 246.481 131.446 247.597 131.446C248.663 131.446 249.68 131.257 250.651 130.879C251.62 130.503 252.457 129.991 253.159 129.346C253.862 128.702 254.42 127.936 254.832 127.046C255.244 126.158 255.45 125.203 255.45 124.179V98.6457C255.45 96.3355 255.901 94.1567 256.804 92.1121C257.707 90.0684 258.963 88.3018 260.574 86.8121C262.183 85.3235 264.074 84.1454 266.245 83.2789C268.416 82.4123 270.794 81.979 273.381 81.979C275.869 81.979 278.223 82.4238 280.444 83.3124C282.664 84.202 284.615 85.4021 286.298 86.9128C287.981 88.4245 289.323 90.1911 290.324 92.2127C291.323 94.2353 291.848 96.4026 291.897 98.7128V124.179C291.897 125.202 292.117 126.158 292.555 127.046C292.993 127.936 293.589 128.703 294.345 129.346C295.099 129.991 295.975 130.502 296.975 130.879C297.972 131.257 299.031 131.446 300.152 131.446C301.272 131.446 302.318 131.257 303.292 130.88C304.265 130.504 305.105 129.992 305.812 129.349C306.518 128.704 307.078 127.94 307.492 127.052C307.905 126.164 308.112 125.21 308.112 124.188V98.6811C308.112 94.3302 307.199 90.2457 305.374 86.4268C303.548 82.6088 301.064 79.2682 297.924 76.404C294.783 73.5408 291.106 71.2872 286.895 69.6442C282.683 68.0012 278.191 67.1797 273.419 67.1797C268.646 67.1797 264.19 68.0012 260.053 69.6442C255.913 71.2872 252.297 73.5398 249.206 76.404C246.113 79.2682 243.679 82.6088 241.902 86.4268C240.124 90.2457 239.236 94.3302 239.236 98.6811V124.188H239.234Z" fill="white"/>
<path d="M71.1055 235.193C71.1055 235.496 71.2187 235.751 71.4442 235.959C71.6706 236.167 71.9485 236.27 72.2788 236.27C72.6091 236.27 72.8891 236.167 73.1198 235.959C73.3504 235.751 73.4658 235.496 73.4658 235.193V225.14C73.4658 224.805 73.5339 224.494 73.6692 224.206C73.8055 223.919 73.9911 223.668 74.2281 223.452C74.4651 223.236 74.7429 223.068 75.0627 222.943C75.3826 222.819 75.7223 222.757 76.082 222.757C76.45 222.757 76.7918 222.819 77.1074 222.943C77.4231 223.067 77.6988 223.236 77.9358 223.452C78.1728 223.668 78.3584 223.919 78.4947 224.206C78.631 224.494 78.6981 224.797 78.6981 225.116V225.236V227.163C78.6981 227.466 78.8114 227.723 79.0389 227.934C79.2664 228.146 79.5454 228.252 79.8778 228.252C80.2185 228.252 80.5048 228.146 80.7365 227.934C80.9683 227.723 81.0836 227.466 81.0836 227.163V225.14C81.0836 224.821 81.1497 224.516 81.2807 224.225C81.4118 223.933 81.5932 223.68 81.8249 223.465C82.0567 223.249 82.3272 223.077 82.6376 222.95C82.9479 222.822 83.2866 222.758 83.6536 222.758C84.0206 222.758 84.3635 222.82 84.6833 222.944C85.0021 223.068 85.28 223.237 85.5159 223.453C85.7518 223.669 85.9374 223.92 86.0727 224.207C86.2079 224.495 86.2761 224.806 86.2761 225.141V235.194C86.2761 235.496 86.3946 235.752 86.6305 235.959C86.8664 236.167 87.1506 236.271 87.483 236.271C87.8154 236.271 88.0974 236.167 88.3292 235.959C88.5609 235.752 88.6763 235.496 88.6763 235.194V225.165V225.058C88.6763 224.428 88.5452 223.837 88.283 223.286C88.0209 222.736 87.6644 222.253 87.2146 221.838C86.7647 221.423 86.2331 221.096 85.6218 220.856C85.0094 220.617 84.3583 220.497 83.6683 220.497C82.8987 220.497 82.1909 220.644 81.5439 220.94C80.897 221.235 80.3465 221.634 79.8914 222.136C79.4195 221.634 78.8575 221.235 78.2063 220.94C77.5552 220.644 76.8453 220.497 76.0757 220.497C75.3847 220.497 74.7387 220.617 74.1348 220.856C73.5318 221.096 73.0044 221.423 72.5546 221.838C72.1047 222.253 71.7503 222.735 71.4924 223.286C71.2344 223.836 71.1055 224.427 71.1055 225.058V235.193V235.193Z" fill="white"/>
<path d="M99.2708 236.064C99.9523 235.831 100.569 235.506 101.119 235.089L101.132 235.258C101.132 235.562 101.237 235.821 101.449 236.034C101.659 236.247 101.932 236.353 102.267 236.353C102.6 236.353 102.882 236.248 103.111 236.036C103.339 235.824 103.453 235.567 103.453 235.263V230.567V230.495C103.436 229.697 103.261 228.946 102.928 228.244C102.596 227.541 102.145 226.928 101.577 226.405C101.008 225.882 100.34 225.469 99.5749 225.165C98.8094 224.861 97.9842 224.709 97.1013 224.709C96.2174 224.709 95.39 224.864 94.6204 225.171C93.8507 225.478 93.1786 225.897 92.6061 226.428C92.0325 226.959 91.5806 227.58 91.2472 228.291C90.9148 229.001 90.748 229.76 90.748 230.566C90.748 231.373 90.9137 232.132 91.2461 232.843C91.5785 233.553 92.0304 234.172 92.603 234.7C93.1755 235.227 93.8466 235.644 94.6151 235.952C95.3837 236.259 96.21 236.413 97.0929 236.413C97.8636 236.413 98.5892 236.296 99.2708 236.064ZM95.5075 233.989C95.0178 233.794 94.5942 233.527 94.2356 233.189C93.877 232.851 93.5928 232.456 93.3831 232.006C93.1734 231.556 93.0685 231.076 93.0685 230.566C93.0685 230.056 93.1734 229.577 93.3831 229.127C93.5928 228.676 93.877 228.284 94.2356 227.949C94.5942 227.615 95.0178 227.35 95.5075 227.155C95.9972 226.959 96.5256 226.862 97.094 226.862C97.6707 226.862 98.2044 226.96 98.6941 227.155C99.1837 227.35 99.6095 227.615 99.9723 227.949C100.335 228.284 100.619 228.676 100.825 229.127C101.03 229.577 101.133 230.056 101.133 230.566C101.133 231.076 101.03 231.557 100.825 232.006C100.619 232.457 100.335 232.851 99.9723 233.189C99.6095 233.527 99.1837 233.794 98.6941 233.989C98.2044 234.185 97.6717 234.282 97.094 234.282C96.5256 234.283 95.9972 234.185 95.5075 233.989Z" fill="white"/>
<path d="M105.826 235.217C105.826 235.368 105.859 235.508 105.925 235.635C105.991 235.763 106.079 235.875 106.189 235.971C106.299 236.067 106.426 236.141 106.572 236.192C106.716 236.244 106.868 236.27 107.027 236.27C107.343 236.27 107.609 236.17 107.825 235.971C108.04 235.772 108.148 235.52 108.148 235.217V230.837C108.148 230.287 108.263 229.768 108.495 229.281C108.726 228.794 109.041 228.369 109.438 228.006C109.836 227.643 110.297 227.356 110.822 227.144C111.346 226.934 111.906 226.827 112.5 226.827H112.566C112.899 226.827 113.183 226.727 113.419 226.528C113.655 226.329 113.773 226.078 113.773 225.774C113.773 225.471 113.67 225.22 113.465 225.019C113.259 224.82 112.961 224.72 112.566 224.72H112.5C111.583 224.72 110.719 224.882 109.91 225.205C109.102 225.528 108.395 225.967 107.789 226.521C107.183 227.076 106.705 227.724 106.354 228.466C106.002 229.208 105.826 229.998 105.826 230.836V235.217V235.217Z" fill="white"/>
<path d="M122.806 235.922C122.928 236.034 123.066 236.116 123.219 236.168C123.372 236.219 123.523 236.245 123.671 236.245C123.828 236.245 123.975 236.216 124.11 236.155C124.245 236.096 124.366 236.017 124.471 235.922C124.576 235.827 124.659 235.713 124.72 235.581C124.781 235.45 124.813 235.312 124.813 235.168C124.813 234.889 124.708 234.657 124.498 234.474L119.568 230.249L123.75 226.708C123.995 226.5 124.117 226.248 124.117 225.953C124.117 225.809 124.085 225.674 124.019 225.547C123.953 225.419 123.868 225.307 123.763 225.211C123.658 225.115 123.536 225.04 123.396 224.984C123.257 224.928 123.108 224.901 122.95 224.901C122.811 224.901 122.673 224.923 122.537 224.967C122.402 225.011 122.277 225.081 122.164 225.176L117.602 229.042L117.614 221.621C117.614 221.334 117.504 221.088 117.285 220.885C117.065 220.682 116.788 220.58 116.455 220.58C116.296 220.58 116.147 220.608 116.007 220.664C115.866 220.719 115.741 220.793 115.63 220.885C115.52 220.977 115.434 221.086 115.374 221.214C115.312 221.341 115.281 221.478 115.281 221.62V235.227C115.281 235.523 115.396 235.77 115.624 235.969C115.853 236.169 116.13 236.268 116.455 236.268C116.771 236.268 117.042 236.169 117.265 235.969C117.49 235.77 117.602 235.523 117.602 235.227V231.446L122.806 235.922Z" fill="white"/>
<path d="M137.569 231.53C137.901 231.53 138.171 231.434 138.381 231.243C138.591 231.051 138.696 230.812 138.696 230.525C138.687 229.727 138.512 228.975 138.171 228.269C137.831 227.563 137.369 226.946 136.788 226.42C136.207 225.894 135.527 225.479 134.75 225.176C133.972 224.873 133.146 224.721 132.272 224.721C131.389 224.721 130.557 224.875 129.775 225.183C128.992 225.49 128.311 225.906 127.729 226.433C127.148 226.96 126.689 227.578 126.352 228.288C126.015 228.999 125.848 229.761 125.848 230.574C125.848 231.381 126.015 232.138 126.352 232.848C126.689 233.559 127.147 234.177 127.729 234.703C128.31 235.229 128.991 235.646 129.775 235.954C130.557 236.262 131.389 236.415 132.272 236.415C132.779 236.415 133.266 236.38 133.734 236.308C134.202 236.236 134.613 236.132 134.966 235.996C135.32 235.861 135.601 235.695 135.812 235.5C136.022 235.304 136.127 235.079 136.127 234.824C136.127 234.68 136.096 234.541 136.034 234.405C135.974 234.27 135.89 234.152 135.785 234.052C135.68 233.953 135.559 233.873 135.424 233.813C135.289 233.753 135.142 233.722 134.985 233.722C134.767 233.722 134.535 233.787 134.29 233.914C133.993 234.074 133.695 234.191 133.398 234.267C133.101 234.343 132.725 234.381 132.271 234.381C131.799 234.381 131.352 234.309 130.927 234.165C130.503 234.022 130.121 233.822 129.78 233.567C129.439 233.312 129.151 233.01 128.915 232.663C128.679 232.316 128.512 231.939 128.417 231.532H137.569V231.53ZM128.352 229.76C128.43 229.345 128.583 228.954 128.811 228.586C129.038 228.219 129.327 227.898 129.676 227.623C130.025 227.348 130.424 227.132 130.869 226.977C131.315 226.822 131.796 226.744 132.311 226.744C132.817 226.744 133.297 226.82 133.747 226.971C134.196 227.123 134.599 227.335 134.952 227.606C135.307 227.877 135.604 228.196 135.844 228.563C136.084 228.931 136.243 229.329 136.322 229.76H128.352Z" fill="white"/>
<path d="M140.324 230.644C140.324 231.458 140.491 232.217 140.826 232.918C141.161 233.621 141.618 234.23 142.197 234.749C142.776 235.268 143.454 235.675 144.232 235.969C145.01 236.265 145.845 236.412 146.736 236.412C147.549 236.412 148.303 236.292 148.998 236.053C149.693 235.813 150.316 235.455 150.866 234.975C150.998 234.855 151.1 234.714 151.175 234.551C151.249 234.388 151.286 234.226 151.286 234.066C151.286 233.922 151.258 233.791 151.201 233.671C151.144 233.551 151.066 233.447 150.965 233.359C150.864 233.272 150.751 233.204 150.624 233.156C150.497 233.108 150.368 233.084 150.237 233.084C149.931 233.084 149.639 233.204 149.359 233.443C148.992 233.755 148.587 233.976 148.145 234.108C147.704 234.239 147.234 234.305 146.736 234.305C146.168 234.305 145.637 234.211 145.143 234.024C144.65 233.837 144.221 233.58 143.859 233.253C143.496 232.926 143.21 232.541 143 232.098C142.79 231.655 142.686 231.178 142.686 230.667V226.766H147.891C148.223 226.766 148.5 226.668 148.723 226.473C148.947 226.277 149.058 226.036 149.058 225.749C149.058 225.454 148.944 225.201 148.717 224.989C148.489 224.778 148.215 224.672 147.891 224.672H142.685V222.326C142.685 222.175 142.652 222.033 142.587 221.901C142.522 221.77 142.435 221.656 142.326 221.56C142.217 221.464 142.089 221.389 141.941 221.333C141.793 221.277 141.641 221.25 141.485 221.25C141.329 221.25 141.181 221.277 141.041 221.333C140.902 221.389 140.778 221.466 140.67 221.566C140.561 221.666 140.477 221.782 140.416 221.913C140.356 222.044 140.325 222.182 140.325 222.326V230.644H140.324Z" fill="white"/>
<path d="M152.896 222.579C152.966 222.723 153.059 222.848 153.178 222.956C153.296 223.063 153.436 223.149 153.597 223.213C153.759 223.277 153.932 223.309 154.115 223.309C154.299 223.309 154.47 223.277 154.627 223.213C154.784 223.149 154.924 223.063 155.046 222.956C155.169 222.848 155.265 222.723 155.335 222.579C155.405 222.435 155.44 222.28 155.44 222.112C155.44 221.945 155.405 221.789 155.335 221.645C155.265 221.502 155.169 221.376 155.046 221.269C154.924 221.161 154.784 221.075 154.627 221.012C154.47 220.948 154.299 220.916 154.115 220.916C153.932 220.916 153.759 220.948 153.597 221.012C153.436 221.076 153.295 221.161 153.178 221.269C153.059 221.376 152.966 221.502 152.896 221.645C152.826 221.789 152.791 221.945 152.791 222.112C152.791 222.28 152.826 222.435 152.896 222.579ZM152.935 235.3C152.935 235.596 153.05 235.845 153.282 236.048C153.513 236.251 153.791 236.353 154.114 236.353C154.429 236.353 154.697 236.251 154.921 236.048C155.144 235.845 155.255 235.596 155.255 235.3V225.787C155.255 225.491 155.148 225.24 154.934 225.032C154.72 224.825 154.451 224.721 154.128 224.721C153.962 224.721 153.807 224.748 153.662 224.804C153.518 224.86 153.392 224.935 153.282 225.031C153.173 225.127 153.087 225.24 153.026 225.372C152.965 225.504 152.934 225.642 152.934 225.786V235.3H152.935Z" fill="white"/>
<path d="M157.523 235.228C157.523 235.38 157.556 235.519 157.622 235.647C157.688 235.774 157.775 235.885 157.884 235.976C157.993 236.068 158.12 236.14 158.265 236.191C158.409 236.243 158.559 236.269 158.717 236.269C159.04 236.269 159.309 236.171 159.523 235.976C159.737 235.78 159.844 235.531 159.844 235.228V230.358C159.844 229.871 159.937 229.414 160.126 228.988C160.314 228.561 160.574 228.188 160.906 227.869C161.238 227.55 161.63 227.301 162.079 227.121C162.529 226.942 163.021 226.852 163.555 226.852C164.087 226.852 164.581 226.946 165.036 227.133C165.49 227.321 165.887 227.574 166.223 227.893C166.56 228.212 166.824 228.585 167.016 229.012C167.208 229.438 167.309 229.896 167.318 230.382V230.405V235.228C167.318 235.531 167.432 235.78 167.661 235.976C167.89 236.171 168.166 236.269 168.491 236.269C168.816 236.269 169.089 236.171 169.309 235.976C169.528 235.78 169.639 235.531 169.639 235.228V230.417V230.358C169.639 229.584 169.483 228.854 169.173 228.167C168.863 227.481 168.434 226.883 167.886 226.372C167.339 225.861 166.696 225.458 165.957 225.163C165.218 224.868 164.419 224.72 163.562 224.72C162.713 224.72 161.921 224.868 161.186 225.163C160.451 225.458 159.812 225.861 159.269 226.372C158.727 226.883 158.3 227.481 157.989 228.167C157.679 228.854 157.523 229.583 157.523 230.358V230.405V235.228V235.228Z" fill="white"/>
<path d="M171.965 232.843C172.302 233.553 172.76 234.173 173.342 234.7C173.923 235.227 174.6 235.644 175.374 235.952C176.148 236.26 176.975 236.413 177.859 236.413C178.541 236.413 179.183 236.325 179.786 236.149C180.389 235.974 180.953 235.719 181.478 235.383C181.522 235.448 181.57 235.515 181.622 235.587C181.675 235.658 181.721 235.742 181.76 235.838C181.8 235.934 181.832 236.046 181.858 236.173C181.885 236.301 181.898 236.452 181.898 236.628C181.898 238.047 180.862 238.758 178.791 238.758C178.573 238.758 178.362 238.756 178.162 238.752C177.961 238.748 177.76 238.746 177.559 238.746C177.297 238.746 177.031 238.752 176.759 238.764C176.489 238.776 176.213 238.814 175.933 238.878C175.653 238.943 175.38 239.022 175.113 239.118C174.847 239.214 174.613 239.325 174.411 239.453C174.21 239.581 174.049 239.727 173.926 239.891C173.803 240.053 173.742 240.232 173.742 240.424C173.742 240.567 173.777 240.704 173.847 240.837C173.918 240.968 174.009 241.084 174.123 241.184C174.236 241.283 174.365 241.361 174.51 241.417C174.655 241.472 174.805 241.5 174.962 241.5C175.085 241.5 175.204 241.48 175.323 241.441C175.441 241.4 175.552 241.337 175.657 241.249C175.963 241.041 176.28 240.904 176.608 240.836C176.936 240.768 177.239 240.734 177.519 240.734C177.86 240.734 178.207 240.756 178.562 240.8C178.916 240.844 179.259 240.866 179.591 240.866C180.186 240.866 180.758 240.774 181.309 240.591C181.859 240.407 182.349 240.136 182.777 239.776C183.205 239.417 183.545 238.972 183.799 238.441C184.053 237.91 184.18 237.298 184.18 236.603C184.18 236.004 184.09 235.475 183.911 235.016C183.732 234.557 183.48 234.168 183.158 233.849C183.507 233.369 183.778 232.858 183.97 232.316C184.162 231.773 184.259 231.191 184.259 230.568C184.259 229.761 184.093 229.002 183.76 228.292C183.428 227.582 182.974 226.96 182.397 226.429C181.821 225.898 181.143 225.479 180.365 225.172C179.587 224.864 178.753 224.711 177.861 224.711C176.978 224.711 176.15 224.865 175.376 225.172C174.602 225.479 173.925 225.898 173.344 226.429C172.763 226.96 172.304 227.582 171.967 228.292C171.631 229.002 171.463 229.761 171.463 230.568C171.461 231.374 171.629 232.132 171.965 232.843ZM174.102 229.127C174.316 228.676 174.606 228.284 174.975 227.95C175.342 227.615 175.772 227.351 176.266 227.155C176.76 226.959 177.291 226.863 177.859 226.863C178.436 226.863 178.974 226.96 179.472 227.155C179.97 227.351 180.403 227.615 180.77 227.95C181.137 228.284 181.425 228.676 181.635 229.127C181.845 229.577 181.95 230.057 181.95 230.567C181.95 231.077 181.845 231.557 181.635 232.006C181.425 232.456 181.137 232.851 180.77 233.189C180.403 233.528 179.97 233.794 179.472 233.99C178.974 234.185 178.436 234.282 177.859 234.282C177.291 234.282 176.76 234.184 176.266 233.99C175.772 233.794 175.342 233.528 174.975 233.189C174.608 232.851 174.317 232.456 174.102 232.006C173.888 231.556 173.781 231.077 173.781 230.567C173.781 230.057 173.888 229.577 174.102 229.127Z" fill="white"/>
<path d="M203.219 231.53C203.551 231.53 203.822 231.434 204.032 231.243C204.241 231.051 204.346 230.812 204.346 230.525C204.338 229.727 204.163 228.975 203.822 228.269C203.481 227.563 203.02 226.946 202.439 226.42C201.858 225.894 201.177 225.479 200.4 225.176C199.622 224.873 198.796 224.721 197.923 224.721C197.04 224.721 196.207 224.875 195.425 225.183C194.643 225.49 193.961 225.906 193.379 226.433C192.798 226.96 192.339 227.578 192.002 228.288C191.666 228.999 191.498 229.761 191.498 230.574C191.498 231.381 191.666 232.138 192.002 232.848C192.339 233.559 192.797 234.177 193.379 234.703C193.96 235.229 194.643 235.646 195.425 235.954C196.207 236.262 197.04 236.415 197.923 236.415C198.429 236.415 198.917 236.38 199.384 236.308C199.852 236.236 200.263 236.132 200.616 235.996C200.971 235.861 201.252 235.695 201.463 235.5C201.672 235.304 201.777 235.079 201.777 234.824C201.777 234.68 201.747 234.541 201.685 234.405C201.624 234.27 201.54 234.152 201.435 234.052C201.33 233.953 201.21 233.873 201.075 233.813C200.939 233.753 200.793 233.722 200.635 233.722C200.417 233.722 200.185 233.787 199.94 233.914C199.643 234.074 199.345 234.191 199.049 234.267C198.752 234.343 198.376 234.381 197.922 234.381C197.45 234.381 197.002 234.309 196.577 234.165C196.154 234.022 195.771 233.822 195.43 233.567C195.089 233.312 194.801 233.01 194.565 232.663C194.329 232.316 194.162 231.939 194.067 231.532H203.219V231.53ZM194.001 229.76C194.08 229.345 194.233 228.954 194.46 228.586C194.688 228.219 194.976 227.898 195.325 227.623C195.674 227.348 196.073 227.132 196.519 226.977C196.964 226.822 197.444 226.744 197.96 226.744C198.467 226.744 198.946 226.82 199.396 226.971C199.846 227.123 200.248 227.335 200.602 227.606C200.956 227.877 201.253 228.196 201.493 228.563C201.733 228.931 201.892 229.329 201.971 229.76H194.001Z" fill="white"/>
<path d="M212.145 235.193C212.145 235.504 212.26 235.765 212.492 235.977C212.723 236.189 213.005 236.294 213.338 236.294C213.679 236.294 213.954 236.189 214.164 235.977C214.374 235.766 214.483 235.504 214.492 235.193L214.545 230.753C215.043 231.192 215.605 231.554 216.23 231.842C216.855 232.129 217.56 232.272 218.347 232.272C218.932 232.272 219.496 232.202 220.038 232.063C220.58 231.923 221.087 231.726 221.559 231.471C222.03 231.216 222.461 230.91 222.85 230.555C223.239 230.201 223.572 229.808 223.846 229.376C224.122 228.946 224.336 228.481 224.489 227.982C224.642 227.484 224.719 226.967 224.719 226.432C224.719 225.635 224.55 224.863 224.215 224.117C223.878 223.371 223.422 222.734 222.844 222.208C222.267 221.682 221.592 221.265 220.818 220.957C220.044 220.65 219.22 220.496 218.347 220.496C217.464 220.496 216.644 220.649 215.888 220.957C215.132 221.264 214.477 221.681 213.921 222.208C213.366 222.734 212.931 223.371 212.616 224.117C212.302 224.862 212.145 225.635 212.145 226.432V226.54V235.193V235.193ZM216.878 229.807C216.396 229.615 215.977 229.356 215.619 229.029C215.261 228.702 214.977 228.317 214.767 227.874C214.557 227.431 214.452 226.959 214.452 226.456C214.452 225.954 214.557 225.484 214.767 225.044C214.977 224.605 215.261 224.203 215.619 223.836C215.978 223.469 216.397 223.19 216.878 222.998C217.358 222.806 217.874 222.71 218.424 222.71C218.975 222.71 219.497 222.8 219.991 222.98C220.485 223.159 220.916 223.428 221.283 223.788C221.65 224.147 221.94 224.544 222.155 224.978C222.369 225.414 222.476 225.886 222.476 226.396C222.476 226.907 222.369 227.385 222.155 227.832C221.941 228.279 221.651 228.67 221.283 229.005C220.916 229.341 220.485 229.605 219.991 229.801C219.497 229.996 218.975 230.094 218.424 230.094C217.874 230.094 217.359 229.998 216.878 229.807Z" fill="white"/>
<path d="M226.488 230.788C226.488 231.562 226.646 232.29 226.96 232.972C227.275 233.654 227.706 234.251 228.252 234.761C228.798 235.271 229.441 235.674 230.179 235.969C230.917 236.265 231.715 236.412 232.572 236.412C233.419 236.412 234.203 236.265 234.919 235.969C235.635 235.674 236.251 235.271 236.767 234.761C237.283 234.25 237.687 233.653 237.981 232.972C238.273 232.289 238.42 231.562 238.42 230.788V230.729V225.774C238.42 225.479 238.313 225.229 238.099 225.026C237.885 224.823 237.611 224.721 237.279 224.721C237.122 224.721 236.971 224.749 236.827 224.805C236.683 224.86 236.559 224.936 236.454 225.032C236.349 225.128 236.264 225.239 236.198 225.367C236.132 225.494 236.099 225.629 236.099 225.773V230.769C236.099 231.255 236.014 231.711 235.845 232.138C235.675 232.564 235.437 232.936 235.132 233.256C234.826 233.575 234.457 233.825 234.025 234.009C233.593 234.192 233.111 234.284 232.579 234.284C232.047 234.284 231.554 234.195 231.101 234.015C230.647 233.836 230.253 233.59 229.916 233.28C229.58 232.969 229.314 232.605 229.118 232.186C228.922 231.768 228.819 231.319 228.811 230.841V225.773C228.811 225.479 228.697 225.229 228.468 225.026C228.239 224.823 227.967 224.721 227.65 224.721C227.325 224.721 227.05 224.823 226.826 225.026C226.602 225.229 226.489 225.479 226.489 225.774V230.788H226.488Z" fill="white"/>
<path d="M240.754 230.573C240.754 231.379 240.923 232.134 241.259 232.841C241.596 233.547 242.055 234.163 242.637 234.69C243.219 235.216 243.9 235.633 244.678 235.941C245.457 236.248 246.287 236.402 247.171 236.402C248.055 236.402 248.886 236.248 249.665 235.941C250.444 235.633 251.121 235.216 251.699 234.689C252.277 234.162 252.732 233.545 253.064 232.838C253.396 232.131 253.563 231.374 253.563 230.568C253.563 229.761 253.398 229.002 253.065 228.292C252.733 227.582 252.279 226.961 251.702 226.43C251.125 225.899 250.448 225.479 249.67 225.172C248.892 224.864 248.061 224.711 247.178 224.711C246.741 224.711 246.311 224.767 245.887 224.879C245.463 224.991 245.069 225.146 244.707 225.346C244.344 225.545 244.02 225.783 243.737 226.058C243.453 226.333 243.233 226.63 243.075 226.949V221.597C243.075 221.295 242.967 221.038 242.752 220.827C242.536 220.616 242.262 220.51 241.928 220.51C241.762 220.51 241.607 220.538 241.467 220.594C241.326 220.65 241.204 220.727 241.098 220.827C240.992 220.927 240.909 221.042 240.847 221.174C240.785 221.305 240.755 221.447 240.755 221.598V230.573H240.754ZM243.409 229.116C243.623 228.665 243.913 228.273 244.279 227.938C244.646 227.604 245.078 227.341 245.575 227.15C246.072 226.959 246.605 226.863 247.172 226.863C247.739 226.863 248.272 226.959 248.769 227.15C249.266 227.34 249.698 227.604 250.065 227.938C250.432 228.273 250.719 228.665 250.929 229.116C251.139 229.566 251.244 230.049 251.244 230.567C251.244 231.077 251.139 231.557 250.929 232.007C250.719 232.456 250.432 232.849 250.065 233.184C249.698 233.518 249.266 233.783 248.769 233.978C248.272 234.174 247.739 234.271 247.172 234.271C246.605 234.271 246.072 234.173 245.575 233.978C245.078 233.783 244.646 233.518 244.279 233.184C243.912 232.849 243.623 232.457 243.409 232.007C243.195 231.556 243.088 231.077 243.088 230.567C243.088 230.049 243.195 229.565 243.409 229.116Z" fill="white"/>
<path d="M255.728 232.272C255.728 232.87 255.839 233.415 256.062 233.905C256.285 234.396 256.593 234.819 256.987 235.174C257.38 235.528 257.844 235.801 258.376 235.993C258.909 236.185 259.487 236.281 260.107 236.281C260.44 236.281 260.71 236.183 260.92 235.987C261.13 235.792 261.235 235.543 261.235 235.24C261.235 234.952 261.128 234.707 260.914 234.504C260.7 234.3 260.426 234.199 260.094 234.199C259.455 234.199 258.955 234.033 258.592 233.702C258.229 233.371 258.048 232.894 258.048 232.272V221.645C258.048 221.494 258.016 221.352 257.95 221.221C257.883 221.089 257.796 220.975 257.687 220.879C257.578 220.784 257.451 220.71 257.307 220.658C257.162 220.606 257.012 220.58 256.855 220.58C256.54 220.58 256.274 220.682 256.055 220.885C255.837 221.088 255.727 221.342 255.727 221.645V232.272H255.728Z" fill="white"/>
<path d="M262.824 222.579C262.894 222.723 262.987 222.848 263.106 222.956C263.224 223.063 263.364 223.149 263.525 223.213C263.687 223.277 263.86 223.309 264.043 223.309C264.227 223.309 264.398 223.277 264.555 223.213C264.712 223.149 264.852 223.063 264.974 222.956C265.097 222.848 265.192 222.723 265.263 222.579C265.333 222.435 265.367 222.28 265.367 222.112C265.367 221.945 265.333 221.789 265.263 221.645C265.192 221.502 265.097 221.376 264.974 221.269C264.852 221.161 264.712 221.075 264.555 221.012C264.398 220.948 264.227 220.916 264.043 220.916C263.86 220.916 263.687 220.948 263.525 221.012C263.364 221.076 263.223 221.161 263.106 221.269C262.988 221.376 262.894 221.502 262.824 221.645C262.753 221.789 262.719 221.945 262.719 222.112C262.719 222.28 262.753 222.435 262.824 222.579ZM262.862 235.3C262.862 235.596 262.978 235.845 263.209 236.048C263.441 236.251 263.719 236.353 264.042 236.353C264.357 236.353 264.625 236.251 264.848 236.048C265.072 235.845 265.183 235.596 265.183 235.3V225.787C265.183 225.491 265.076 225.24 264.862 225.032C264.648 224.825 264.379 224.721 264.056 224.721C263.89 224.721 263.735 224.748 263.59 224.804C263.445 224.86 263.32 224.935 263.209 225.031C263.1 225.127 263.014 225.24 262.954 225.372C262.893 225.504 262.861 225.642 262.861 225.786V235.3H262.862Z" fill="white"/>
<path d="M267.622 232.895C267.957 233.597 268.416 234.207 268.999 234.726C269.582 235.245 270.263 235.654 271.041 235.953C271.819 236.252 272.653 236.402 273.545 236.402C274.375 236.402 275.172 236.267 275.937 235.998C276.702 235.73 277.355 235.342 277.897 234.837C278.037 234.709 278.139 234.569 278.205 234.416C278.272 234.264 278.304 234.113 278.304 233.96C278.304 233.801 278.266 233.657 278.193 233.53C278.118 233.402 278.024 233.292 277.911 233.201C277.798 233.109 277.673 233.039 277.538 232.991C277.402 232.943 277.278 232.919 277.164 232.919C277.068 232.919 276.972 232.934 276.876 232.961C276.779 232.989 276.688 233.024 276.6 233.063L275.683 233.65C275.316 233.882 274.949 234.039 274.582 234.122C274.215 234.206 273.834 234.248 273.441 234.248C272.864 234.248 272.335 234.144 271.854 233.937C271.373 233.73 270.956 233.457 270.602 233.119C270.248 232.78 269.973 232.388 269.776 231.941C269.579 231.496 269.481 231.034 269.481 230.555C269.481 230.086 269.58 229.631 269.776 229.193C269.973 228.755 270.244 228.367 270.589 228.029C270.934 227.69 271.343 227.417 271.814 227.21C272.286 227.003 272.794 226.892 273.335 226.875C273.754 226.875 274.152 226.918 274.528 227.001C274.904 227.084 275.288 227.243 275.682 227.474L276.599 228.072C276.774 228.16 276.958 228.203 277.15 228.203C277.263 228.203 277.388 228.179 277.523 228.131C277.658 228.083 277.785 228.015 277.904 227.928C278.022 227.84 278.12 227.73 278.198 227.599C278.277 227.468 278.317 227.322 278.317 227.162C278.317 227.018 278.282 226.871 278.212 226.719C278.142 226.568 278.037 226.424 277.897 226.289C277.347 225.786 276.693 225.399 275.937 225.128C275.181 224.857 274.383 224.721 273.545 224.721C272.644 224.721 271.803 224.875 271.021 225.183C270.239 225.49 269.558 225.911 268.979 226.445C268.4 226.98 267.946 227.606 267.616 228.324C267.286 229.042 267.121 229.811 267.121 230.634C267.12 231.439 267.288 232.193 267.622 232.895Z" fill="white"/>
<path d="M280.224 222.579C280.294 222.723 280.388 222.848 280.506 222.956C280.625 223.063 280.764 223.149 280.925 223.213C281.087 223.277 281.26 223.309 281.443 223.309C281.627 223.309 281.798 223.277 281.955 223.213C282.112 223.149 282.252 223.063 282.375 222.956C282.497 222.848 282.593 222.723 282.663 222.579C282.733 222.435 282.768 222.28 282.768 222.112C282.768 221.945 282.733 221.789 282.663 221.645C282.593 221.502 282.497 221.376 282.375 221.269C282.252 221.161 282.112 221.075 281.955 221.012C281.798 220.948 281.627 220.916 281.443 220.916C281.26 220.916 281.087 220.948 280.925 221.012C280.764 221.076 280.623 221.161 280.506 221.269C280.388 221.376 280.294 221.502 280.224 221.645C280.154 221.789 280.119 221.945 280.119 222.112C280.119 222.28 280.154 222.435 280.224 222.579ZM280.263 235.3C280.263 235.596 280.378 235.845 280.61 236.048C280.842 236.251 281.118 236.353 281.442 236.353C281.757 236.353 282.025 236.251 282.249 236.048C282.472 235.845 282.583 235.596 282.583 235.3V225.787C282.583 225.491 282.476 225.24 282.262 225.032C282.048 224.825 281.779 224.721 281.456 224.721C281.29 224.721 281.135 224.748 280.99 224.804C280.846 224.86 280.72 224.935 280.61 225.031C280.501 225.127 280.415 225.24 280.354 225.372C280.293 225.504 280.262 225.642 280.262 225.786V235.3H280.263Z" fill="white"/>
<path d="M285.024 232.843C285.36 233.553 285.819 234.173 286.401 234.7C286.982 235.227 287.659 235.644 288.433 235.952C289.207 236.259 290.034 236.413 290.918 236.413C291.801 236.413 292.629 236.261 293.403 235.958C294.177 235.656 294.852 235.242 295.429 234.72C296.005 234.198 296.463 233.587 296.799 232.889C297.136 232.191 297.309 231.444 297.317 230.645V230.573V221.61C297.317 221.298 297.206 221.037 296.983 220.826C296.759 220.615 296.483 220.508 296.15 220.508C295.818 220.508 295.543 220.614 295.324 220.826C295.106 221.037 294.996 221.298 294.996 221.61V226.851C294.804 226.514 294.58 226.214 294.327 225.948C294.073 225.684 293.783 225.458 293.454 225.274C293.126 225.09 292.753 224.949 292.333 224.853C291.914 224.758 291.442 224.709 290.918 224.709C290.035 224.709 289.207 224.863 288.433 225.17C287.659 225.478 286.982 225.896 286.401 226.427C285.82 226.959 285.36 227.58 285.024 228.29C284.687 229 284.52 229.759 284.52 230.566C284.518 231.374 284.687 232.132 285.024 232.843ZM287.161 229.127C287.375 228.676 287.665 228.284 288.033 227.95C288.4 227.615 288.831 227.351 289.325 227.155C289.819 226.959 290.35 226.863 290.918 226.863C291.495 226.863 292.03 226.96 292.524 227.155C293.018 227.351 293.449 227.615 293.816 227.95C294.183 228.284 294.471 228.676 294.681 229.127C294.891 229.577 294.996 230.057 294.996 230.567C294.996 231.077 294.891 231.557 294.681 232.006C294.471 232.457 294.183 232.851 293.816 233.189C293.449 233.528 293.018 233.794 292.524 233.99C292.03 234.185 291.495 234.282 290.918 234.282C290.35 234.282 289.819 234.184 289.325 233.99C288.831 233.794 288.4 233.528 288.033 233.189C287.666 232.851 287.376 232.456 287.161 232.006C286.947 231.556 286.84 231.077 286.84 230.567C286.839 230.057 286.946 229.577 287.161 229.127Z" fill="white"/>
<path d="M307.636 236.064C308.318 235.831 308.934 235.506 309.485 235.089L309.497 235.258C309.497 235.562 309.602 235.821 309.814 236.034C310.025 236.247 310.297 236.353 310.632 236.353C310.965 236.353 311.247 236.248 311.476 236.036C311.704 235.824 311.819 235.567 311.819 235.263V230.567V230.495C311.801 229.697 311.626 228.946 311.293 228.244C310.961 227.541 310.51 226.928 309.942 226.405C309.373 225.882 308.706 225.469 307.94 225.165C307.175 224.861 306.349 224.709 305.467 224.709C304.583 224.709 303.755 224.864 302.986 225.171C302.216 225.478 301.544 225.897 300.971 226.428C300.398 226.959 299.946 227.58 299.612 228.291C299.28 229.001 299.113 229.76 299.113 230.566C299.113 231.373 299.279 232.132 299.611 232.843C299.944 233.553 300.396 234.172 300.968 234.7C301.541 235.227 302.212 235.644 302.98 235.952C303.749 236.259 304.575 236.413 305.458 236.413C306.229 236.413 306.954 236.296 307.636 236.064ZM303.873 233.989C303.383 233.794 302.959 233.527 302.601 233.189C302.242 232.851 301.958 232.456 301.748 232.006C301.539 231.556 301.434 231.076 301.434 230.566C301.434 230.056 301.539 229.577 301.748 229.127C301.958 228.676 302.242 228.284 302.601 227.949C302.959 227.615 303.383 227.35 303.873 227.155C304.362 226.959 304.891 226.862 305.459 226.862C306.036 226.862 306.57 226.96 307.058 227.155C307.548 227.35 307.974 227.615 308.336 227.949C308.699 228.284 308.983 228.676 309.189 229.127C309.394 229.577 309.497 230.056 309.497 230.566C309.497 231.076 309.394 231.557 309.189 232.006C308.983 232.457 308.699 232.851 308.336 233.189C307.974 233.527 307.548 233.794 307.058 233.989C306.569 234.185 306.036 234.282 305.459 234.282C304.891 234.283 304.362 234.185 303.873 233.989Z" fill="white"/>
<path d="M314.108 232.843C314.444 233.553 314.903 234.173 315.485 234.7C316.066 235.227 316.743 235.644 317.517 235.952C318.291 236.259 319.118 236.413 320.002 236.413C320.885 236.413 321.713 236.261 322.487 235.958C323.261 235.656 323.936 235.242 324.513 234.72C325.089 234.198 325.547 233.587 325.883 232.889C326.22 232.191 326.393 231.444 326.401 230.645V230.573V221.61C326.401 221.298 326.29 221.037 326.067 220.826C325.843 220.615 325.567 220.508 325.234 220.508C324.902 220.508 324.627 220.614 324.408 220.826C324.19 221.037 324.08 221.298 324.08 221.61V226.851C323.888 226.514 323.664 226.214 323.411 225.948C323.157 225.684 322.866 225.458 322.538 225.274C322.21 225.09 321.837 224.949 321.417 224.853C320.998 224.758 320.526 224.709 320.002 224.709C319.119 224.709 318.291 224.863 317.517 225.17C316.743 225.478 316.066 225.896 315.485 226.427C314.904 226.959 314.444 227.58 314.108 228.29C313.771 229 313.604 229.759 313.604 230.566C313.602 231.374 313.771 232.132 314.108 232.843ZM316.245 229.127C316.459 228.676 316.749 228.284 317.117 227.95C317.484 227.615 317.915 227.351 318.409 227.155C318.903 226.959 319.433 226.863 320.002 226.863C320.579 226.863 321.114 226.96 321.608 227.155C322.102 227.351 322.533 227.615 322.9 227.95C323.267 228.284 323.555 228.676 323.765 229.127C323.975 229.577 324.08 230.057 324.08 230.567C324.08 231.077 323.975 231.557 323.765 232.006C323.555 232.456 323.267 232.851 322.9 233.189C322.533 233.528 322.102 233.794 321.608 233.99C321.114 234.185 320.579 234.282 320.002 234.282C319.433 234.282 318.903 234.184 318.409 233.99C317.915 233.794 317.484 233.528 317.117 233.189C316.75 232.851 316.46 232.456 316.245 232.006C316.031 231.556 315.924 231.077 315.924 230.567C315.924 230.057 316.031 229.577 316.245 229.127Z" fill="white"/>
<path d="M339.865 231.53C340.198 231.53 340.468 231.434 340.678 231.243C340.888 231.051 340.993 230.812 340.993 230.525C340.984 229.727 340.809 228.975 340.468 228.269C340.127 227.563 339.666 226.946 339.085 226.42C338.504 225.894 337.824 225.479 337.047 225.176C336.269 224.873 335.442 224.721 334.569 224.721C333.686 224.721 332.854 224.875 332.071 225.183C331.289 225.49 330.608 225.906 330.026 226.433C329.445 226.96 328.985 227.578 328.649 228.288C328.312 228.999 328.145 229.761 328.145 230.574C328.145 231.381 328.312 232.138 328.649 232.848C328.985 233.559 329.444 234.177 330.026 234.703C330.607 235.229 331.289 235.646 332.071 235.954C332.854 236.262 333.686 236.415 334.569 236.415C335.075 236.415 335.563 236.38 336.031 236.308C336.498 236.236 336.909 236.132 337.263 235.996C337.617 235.861 337.898 235.695 338.109 235.5C338.319 235.304 338.424 235.079 338.424 234.824C338.424 234.68 338.393 234.541 338.331 234.405C338.27 234.27 338.187 234.152 338.082 234.052C337.977 233.953 337.856 233.873 337.721 233.813C337.586 233.753 337.439 233.722 337.282 233.722C337.064 233.722 336.832 233.787 336.586 233.914C336.289 234.074 335.992 234.191 335.695 234.267C335.398 234.343 335.022 234.381 334.568 234.381C334.096 234.381 333.648 234.309 333.224 234.165C332.8 234.022 332.417 233.822 332.077 233.567C331.736 233.312 331.447 233.01 331.212 232.663C330.976 232.316 330.809 231.939 330.714 231.532H339.865V231.53ZM330.648 229.76C330.727 229.345 330.88 228.954 331.108 228.586C331.335 228.219 331.624 227.898 331.973 227.623C332.322 227.348 332.72 227.132 333.166 226.977C333.612 226.822 334.092 226.744 334.608 226.744C335.114 226.744 335.593 226.82 336.043 226.971C336.493 227.123 336.896 227.335 337.249 227.606C337.604 227.877 337.9 228.196 338.14 228.563C338.381 228.931 338.54 229.329 338.619 229.76H330.648Z" fill="white"/>
<path d="M247.366 166.923C252.936 170.524 252.914 178.664 247.325 182.13L197.908 212.777C191.906 216.499 184.095 212.099 184.115 205.006L184.284 142.519C184.303 135.426 192.137 131.215 198.119 135.083L247.366 166.923Z" fill="white"/>
<path d="M252.391 174.814L207.386 217.265C201.751 222.58 192.184 219.495 190.474 211.811L175.908 146.36C174.198 138.676 181.685 132.419 189.144 135.299L248.716 158.299C255.686 160.99 257.657 169.847 252.391 174.814Z" stroke="white" stroke-width="2"/>
</svg>
