<svg width="52" height="45" viewBox="0 0 52 45" fill="none" xmlns="http://www.w3.org/2000/svg">
<path d="M35.9047 0C29.1802 0 23.7228 5.48591 23.5771 12.2412C17.6316 11.5212 13.7599 9.27688 11.3849 7.06543C8.75112 4.61297 7.91734 2.43408 7.91734 2.43408C7.79561 2.12443 7.59438 1.8531 7.33433 1.64802C7.07428 1.44294 6.76481 1.31151 6.43776 1.26725C6.11071 1.223 5.77789 1.26751 5.47353 1.39621C5.16917 1.52491 4.90426 1.73315 4.70607 1.99951C4.70607 1.99951 2.47656 5 2.47656 9.375C2.47656 11.8762 3.25877 13.7269 4.19101 15.2954C4.15667 15.2792 3.92501 15.1978 3.92501 15.1978C3.62903 15.0485 3.29894 14.9819 2.96888 15.0046C2.63882 15.0274 2.32076 15.1387 2.0476 15.3271C1.77444 15.5155 1.55608 15.7742 1.41511 16.0764C1.27413 16.3786 1.21566 16.7133 1.24573 17.0459C1.24573 17.0459 1.96053 22.3211 6.87271 26.1768L6.36007 26.3062C6.08179 26.3763 5.82339 26.5105 5.60511 26.6984C5.38683 26.8862 5.2146 27.1226 5.10193 27.3889C4.98926 27.6552 4.93921 27.9442 4.95569 28.2333C4.97218 28.5224 5.05475 28.8037 5.19695 29.0552C5.19695 29.0552 6.02991 30.4778 7.77467 31.9751C8.80915 32.8629 10.3288 33.779 12.12 34.6265C9.92023 35.438 6.64 36.25 1.85752 36.25C1.50064 36.25 1.15131 36.3537 0.851322 36.5489C0.55133 36.744 0.313377 37.0223 0.165933 37.3504C0.0184883 37.6786 -0.0322051 38.0426 0.0199176 38.3991C0.0720404 38.7555 0.224772 39.0892 0.45984 39.3604C0.45984 39.3604 1.87897 40.9388 4.68431 42.312C7.48964 43.6853 11.811 45 17.9526 45C28.7482 45 36.5048 39.7714 41.3455 33.1445C46.1862 26.5176 48.2855 18.5764 48.2855 12.5C48.2855 12.1144 48.2617 11.7343 48.2275 11.3574C50.8414 8.8145 51.8223 6.90279 51.8692 6.80908C52.1044 6.33283 52.0168 5.76086 51.6516 5.38086C51.2876 4.99961 50.7233 4.89225 50.2442 5.11475L50.0435 5.20752C49.8714 5.28752 49.6994 5.36803 49.526 5.44678C50.0299 4.63553 50.4276 3.76859 50.7036 2.87109C50.8572 2.37609 50.6914 1.83367 50.2853 1.51367C49.8792 1.19367 49.3199 1.15941 48.8804 1.43066C47.3671 2.3592 45.9166 3.00924 44.4068 3.44482C42.185 1.31684 39.1941 0 35.9047 0ZM35.9047 3.75C40.7124 3.75 44.5713 7.64603 44.5713 12.5C44.5713 17.6736 42.6468 25.0449 38.3567 30.918C34.0666 36.7911 27.5852 41.25 17.9526 41.25C13.2909 41.25 10.19 40.3987 7.86656 39.4775C10.3004 39.0959 12.396 38.5867 13.9022 37.998C16.5141 36.9772 17.9235 35.7983 17.9235 35.7983C18.1821 35.5743 18.3746 35.2828 18.48 34.9558C18.5855 34.6287 18.5998 34.2786 18.5214 33.9439C18.443 33.6092 18.2749 33.3027 18.0356 33.0579C17.7962 32.8131 17.4948 32.6396 17.1642 32.5562C13.7933 31.7053 11.6313 30.3291 10.275 29.1821L12.2119 28.6938C12.595 28.5973 12.9376 28.3801 13.1901 28.0737C13.4425 27.7672 13.5917 27.3875 13.616 26.9897C13.6403 26.5918 13.5383 26.1965 13.325 25.8612C13.1116 25.5258 12.798 25.2677 12.4296 25.1245C8.41184 23.5644 6.72469 21.358 5.86193 19.5093C6.9118 19.7287 7.88931 20 9.286 20C9.70423 19.9997 10.1101 19.8568 10.4379 19.5946C10.7657 19.3323 10.9963 18.9661 11.0922 18.5551C11.1882 18.1441 11.144 17.7124 10.9667 17.33C10.7894 16.9475 10.4895 16.6367 10.1154 16.4478C10.1154 16.4478 6.1908 14.625 6.1908 9.375C6.1908 8.43243 6.44936 7.83544 6.63815 7.12158C7.28589 8.00044 7.81972 8.84824 8.86524 9.82178C12.0529 12.7899 17.3216 15.8164 25.2819 16.2476C25.5338 16.2611 25.7858 16.2228 26.0225 16.1348C26.2592 16.0468 26.4757 15.9111 26.6587 15.7358C26.8418 15.5606 26.9875 15.3496 27.0872 15.1156C27.1868 14.8817 27.2382 14.6297 27.2382 14.375V12.5C27.2382 7.64603 31.097 3.75 35.9047 3.75Z" fill="white"/>
</svg>
