<svg width="58" height="44" viewBox="0 0 58 44" fill="none" xmlns="http://www.w3.org/2000/svg">
<path d="M28.8029 0C19.9186 0 11.5758 0.6875 7.13369 1.64893C4.17402 2.33643 1.61389 4.39893 1.07768 7.5625C0.541467 10.8604 0 15.8125 0 22C0 28.1875 0.53621 33 1.2091 36.4375C1.75057 39.4614 4.30545 41.6636 7.26512 42.3511C11.9806 43.3125 20.05 44 28.9343 44C37.8185 44 45.888 43.3125 50.5982 42.3511C53.5631 41.6636 56.118 39.6011 56.6542 36.4375C57.1957 33 57.8686 28.0532 58 21.8657C58 15.6782 57.3271 10.7261 56.6542 7.28857C56.118 4.26465 53.5631 2.0625 50.5982 1.375C45.888 0.6875 37.6819 0 28.8029 0ZM28.8029 2.75C38.4914 2.75 46.2928 3.57178 50.062 4.25928C52.0807 4.8125 53.6946 6.1875 53.9627 7.97607C54.7722 12.375 55.3084 17.0532 55.3084 21.8657C55.177 27.7739 54.5041 32.5864 53.9627 36.0239C53.5631 38.6343 50.8716 39.4614 50.062 39.7407C45.2151 40.7021 37.1404 41.3843 29.0657 41.3843C20.991 41.3843 12.7849 40.8364 8.07469 39.7407C6.05601 39.1875 4.44213 37.8125 4.17402 36.0239C3.09635 32.1729 2.69156 27.0864 2.69156 22C2.69156 15.6729 3.23303 11 3.76924 8.11572C4.17402 5.5 6.99701 4.67285 7.6699 4.39893C12.112 3.4375 20.3234 2.75 28.8029 2.75ZM21.5325 11V33L40.3734 22L21.5325 11ZM24.2241 15.6782L34.9903 22L24.2241 28.3218V15.6782Z" fill="white"/>
</svg>
